<svg width="267" height="62" viewBox="0 0 267 62" fill="none" xmlns="http://www.w3.org/2000/svg">
<mask id="path-1-outside-1_4_14" maskUnits="userSpaceOnUse" x="61" y="8" width="153" height="33" fill="black">
<rect fill="white" x="61" y="8" width="153" height="33"/>
<path d="M62.4432 39V36.4432L74.8295 20.5341V20.3068H62.8409V17.1818H79.1477V19.8523L67.1023 35.6477V35.875H79.5455V39H62.4432ZM91.1293 39.5114C89.7467 39.5114 88.492 39.2509 87.3651 38.7301C86.2382 38.1998 85.3433 37.4375 84.6804 36.4432C84.0175 35.4394 83.6861 34.2273 83.6861 32.8068C83.6861 31.5568 83.9323 30.5436 84.4247 29.767C84.9171 28.9811 85.5753 28.3655 86.3991 27.9205C87.223 27.4754 88.1321 27.1439 89.1264 26.9261C90.1302 26.6989 91.1387 26.5189 92.152 26.3864C93.4777 26.2159 94.5526 26.0881 95.3764 26.0028C96.2098 25.9081 96.8158 25.7519 97.1946 25.5341C97.5829 25.3163 97.777 24.9375 97.777 24.3977V24.2841C97.777 22.8826 97.3935 21.7936 96.6264 21.017C95.8688 20.2405 94.7183 19.8523 93.1747 19.8523C91.5743 19.8523 90.3196 20.2027 89.4105 20.9034C88.5014 21.6042 87.8622 22.3523 87.4929 23.1477L84.3111 22.0114C84.8793 20.6856 85.6368 19.6534 86.5838 18.9148C87.5402 18.1667 88.5819 17.6458 89.7088 17.3523C90.8452 17.0492 91.9626 16.8977 93.0611 16.8977C93.7618 16.8977 94.5668 16.983 95.4759 17.1534C96.3944 17.3144 97.2798 17.6506 98.1321 18.1619C98.9938 18.6733 99.7088 19.4451 100.277 20.4773C100.845 21.5095 101.129 22.892 101.129 24.625V39H97.777V36.0455H97.6065C97.3793 36.5189 97.0005 37.0256 96.4702 37.5653C95.9399 38.1051 95.2344 38.5644 94.3537 38.9432C93.473 39.322 92.3982 39.5114 91.1293 39.5114ZM91.6406 36.5C92.9664 36.5 94.0838 36.2396 94.9929 35.7188C95.9115 35.1979 96.6027 34.5256 97.0668 33.7017C97.5402 32.8778 97.777 32.0114 97.777 31.1023V28.0341C97.6349 28.2045 97.3224 28.3608 96.8395 28.5028C96.366 28.6354 95.8168 28.7538 95.1918 28.858C94.5762 28.9527 93.9749 29.0379 93.3878 29.1136C92.8101 29.1799 92.3414 29.2367 91.9815 29.2841C91.1103 29.3977 90.2959 29.5824 89.5384 29.8381C88.7902 30.0843 88.1842 30.4583 87.7202 30.9602C87.2656 31.4527 87.0384 32.125 87.0384 32.9773C87.0384 34.142 87.4692 35.0227 88.331 35.6193C89.2022 36.2064 90.3054 36.5 91.6406 36.5ZM110.6 25.875V39H107.248V17.1818H110.487V20.5909H110.771C111.282 19.483 112.058 18.5928 113.1 17.9205C114.142 17.2386 115.487 16.8977 117.134 16.8977C118.612 16.8977 119.904 17.2008 121.012 17.8068C122.12 18.4034 122.982 19.3125 123.597 20.5341C124.213 21.7462 124.521 23.2803 124.521 25.1364V39H121.168V25.3636C121.168 23.6496 120.723 22.3144 119.833 21.358C118.943 20.392 117.721 19.9091 116.168 19.9091C115.098 19.9091 114.142 20.1411 113.299 20.6051C112.466 21.0691 111.808 21.7462 111.325 22.6364C110.842 23.5265 110.6 24.6061 110.6 25.875ZM137.067 39.5114C135.684 39.5114 134.429 39.2509 133.303 38.7301C132.176 38.1998 131.281 37.4375 130.618 36.4432C129.955 35.4394 129.624 34.2273 129.624 32.8068C129.624 31.5568 129.87 30.5436 130.362 29.767C130.855 28.9811 131.513 28.3655 132.337 27.9205C133.161 27.4754 134.07 27.1439 135.064 26.9261C136.068 26.6989 137.076 26.5189 138.089 26.3864C139.415 26.2159 140.49 26.0881 141.314 26.0028C142.147 25.9081 142.753 25.7519 143.132 25.5341C143.52 25.3163 143.714 24.9375 143.714 24.3977V24.2841C143.714 22.8826 143.331 21.7936 142.564 21.017C141.806 20.2405 140.656 19.8523 139.112 19.8523C137.512 19.8523 136.257 20.2027 135.348 20.9034C134.439 21.6042 133.8 22.3523 133.43 23.1477L130.249 22.0114C130.817 20.6856 131.574 19.6534 132.521 18.9148C133.478 18.1667 134.519 17.6458 135.646 17.3523C136.783 17.0492 137.9 16.8977 138.999 16.8977C139.699 16.8977 140.504 16.983 141.413 17.1534C142.332 17.3144 143.217 17.6506 144.07 18.1619C144.931 18.6733 145.646 19.4451 146.214 20.4773C146.783 21.5095 147.067 22.892 147.067 24.625V39H143.714V36.0455H143.544C143.317 36.5189 142.938 37.0256 142.408 37.5653C141.877 38.1051 141.172 38.5644 140.291 38.9432C139.411 39.322 138.336 39.5114 137.067 39.5114ZM137.578 36.5C138.904 36.5 140.021 36.2396 140.93 35.7188C141.849 35.1979 142.54 34.5256 143.004 33.7017C143.478 32.8778 143.714 32.0114 143.714 31.1023V28.0341C143.572 28.2045 143.26 28.3608 142.777 28.5028C142.304 28.6354 141.754 28.7538 141.129 28.858C140.514 28.9527 139.912 29.0379 139.325 29.1136C138.748 29.1799 138.279 29.2367 137.919 29.2841C137.048 29.3977 136.233 29.5824 135.476 29.8381C134.728 30.0843 134.122 30.4583 133.658 30.9602C133.203 31.4527 132.976 32.125 132.976 32.9773C132.976 34.142 133.407 35.0227 134.268 35.6193C135.14 36.2064 136.243 36.5 137.578 36.5ZM170.245 17.1818L162.177 39H158.768L150.7 17.1818H154.336L160.359 34.5682H160.586L166.609 17.1818H170.245ZM175.746 39.2273C175.045 39.2273 174.444 38.9763 173.942 38.4744C173.44 37.9725 173.189 37.3712 173.189 36.6705C173.189 35.9697 173.44 35.3684 173.942 34.8665C174.444 34.3646 175.045 34.1136 175.746 34.1136C176.446 34.1136 177.048 34.3646 177.55 34.8665C178.052 35.3684 178.303 35.9697 178.303 36.6705C178.303 37.1345 178.184 37.5606 177.947 37.9489C177.72 38.3371 177.412 38.6496 177.024 38.8864C176.645 39.1136 176.219 39.2273 175.746 39.2273ZM184.318 39V17.1818H187.67V39H184.318ZM186.023 13.5455C185.369 13.5455 184.806 13.3229 184.332 12.8778C183.868 12.4328 183.636 11.8977 183.636 11.2727C183.636 10.6477 183.868 10.1127 184.332 9.66761C184.806 9.22254 185.369 9 186.023 9C186.676 9 187.235 9.22254 187.699 9.66761C188.172 10.1127 188.409 10.6477 188.409 11.2727C188.409 11.8977 188.172 12.4328 187.699 12.8778C187.235 13.3229 186.676 13.5455 186.023 13.5455ZM202.674 39.4545C200.704 39.4545 198.976 38.9858 197.489 38.0483C196.012 37.1108 194.857 35.7992 194.023 34.1136C193.2 32.428 192.788 30.4583 192.788 28.2045C192.788 25.9318 193.2 23.9479 194.023 22.2528C194.857 20.5578 196.012 19.2415 197.489 18.304C198.976 17.3665 200.704 16.8977 202.674 16.8977C204.644 16.8977 206.367 17.3665 207.844 18.304C209.331 19.2415 210.487 20.5578 211.31 22.2528C212.144 23.9479 212.56 25.9318 212.56 28.2045C212.56 30.4583 212.144 32.428 211.31 34.1136C210.487 35.7992 209.331 37.1108 207.844 38.0483C206.367 38.9858 204.644 39.4545 202.674 39.4545ZM202.674 36.4432C204.17 36.4432 205.401 36.0597 206.367 35.2926C207.333 34.5256 208.048 33.517 208.512 32.267C208.976 31.017 209.208 29.6629 209.208 28.2045C209.208 26.7462 208.976 25.3873 208.512 24.1278C208.048 22.8684 207.333 21.8504 206.367 21.0739C205.401 20.2973 204.17 19.9091 202.674 19.9091C201.178 19.9091 199.947 20.2973 198.981 21.0739C198.015 21.8504 197.3 22.8684 196.836 24.1278C196.372 25.3873 196.14 26.7462 196.14 28.2045C196.14 29.6629 196.372 31.017 196.836 32.267C197.3 33.517 198.015 34.5256 198.981 35.2926C199.947 36.0597 201.178 36.4432 202.674 36.4432Z"/>
</mask>
<path d="M62.4432 39V36.4432L74.8295 20.5341V20.3068H62.8409V17.1818H79.1477V19.8523L67.1023 35.6477V35.875H79.5455V39H62.4432ZM91.1293 39.5114C89.7467 39.5114 88.492 39.2509 87.3651 38.7301C86.2382 38.1998 85.3433 37.4375 84.6804 36.4432C84.0175 35.4394 83.6861 34.2273 83.6861 32.8068C83.6861 31.5568 83.9323 30.5436 84.4247 29.767C84.9171 28.9811 85.5753 28.3655 86.3991 27.9205C87.223 27.4754 88.1321 27.1439 89.1264 26.9261C90.1302 26.6989 91.1387 26.5189 92.152 26.3864C93.4777 26.2159 94.5526 26.0881 95.3764 26.0028C96.2098 25.9081 96.8158 25.7519 97.1946 25.5341C97.5829 25.3163 97.777 24.9375 97.777 24.3977V24.2841C97.777 22.8826 97.3935 21.7936 96.6264 21.017C95.8688 20.2405 94.7183 19.8523 93.1747 19.8523C91.5743 19.8523 90.3196 20.2027 89.4105 20.9034C88.5014 21.6042 87.8622 22.3523 87.4929 23.1477L84.3111 22.0114C84.8793 20.6856 85.6368 19.6534 86.5838 18.9148C87.5402 18.1667 88.5819 17.6458 89.7088 17.3523C90.8452 17.0492 91.9626 16.8977 93.0611 16.8977C93.7618 16.8977 94.5668 16.983 95.4759 17.1534C96.3944 17.3144 97.2798 17.6506 98.1321 18.1619C98.9938 18.6733 99.7088 19.4451 100.277 20.4773C100.845 21.5095 101.129 22.892 101.129 24.625V39H97.777V36.0455H97.6065C97.3793 36.5189 97.0005 37.0256 96.4702 37.5653C95.9399 38.1051 95.2344 38.5644 94.3537 38.9432C93.473 39.322 92.3982 39.5114 91.1293 39.5114ZM91.6406 36.5C92.9664 36.5 94.0838 36.2396 94.9929 35.7188C95.9115 35.1979 96.6027 34.5256 97.0668 33.7017C97.5402 32.8778 97.777 32.0114 97.777 31.1023V28.0341C97.6349 28.2045 97.3224 28.3608 96.8395 28.5028C96.366 28.6354 95.8168 28.7538 95.1918 28.858C94.5762 28.9527 93.9749 29.0379 93.3878 29.1136C92.8101 29.1799 92.3414 29.2367 91.9815 29.2841C91.1103 29.3977 90.2959 29.5824 89.5384 29.8381C88.7902 30.0843 88.1842 30.4583 87.7202 30.9602C87.2656 31.4527 87.0384 32.125 87.0384 32.9773C87.0384 34.142 87.4692 35.0227 88.331 35.6193C89.2022 36.2064 90.3054 36.5 91.6406 36.5ZM110.6 25.875V39H107.248V17.1818H110.487V20.5909H110.771C111.282 19.483 112.058 18.5928 113.1 17.9205C114.142 17.2386 115.487 16.8977 117.134 16.8977C118.612 16.8977 119.904 17.2008 121.012 17.8068C122.12 18.4034 122.982 19.3125 123.597 20.5341C124.213 21.7462 124.521 23.2803 124.521 25.1364V39H121.168V25.3636C121.168 23.6496 120.723 22.3144 119.833 21.358C118.943 20.392 117.721 19.9091 116.168 19.9091C115.098 19.9091 114.142 20.1411 113.299 20.6051C112.466 21.0691 111.808 21.7462 111.325 22.6364C110.842 23.5265 110.6 24.6061 110.6 25.875ZM137.067 39.5114C135.684 39.5114 134.429 39.2509 133.303 38.7301C132.176 38.1998 131.281 37.4375 130.618 36.4432C129.955 35.4394 129.624 34.2273 129.624 32.8068C129.624 31.5568 129.87 30.5436 130.362 29.767C130.855 28.9811 131.513 28.3655 132.337 27.9205C133.161 27.4754 134.07 27.1439 135.064 26.9261C136.068 26.6989 137.076 26.5189 138.089 26.3864C139.415 26.2159 140.49 26.0881 141.314 26.0028C142.147 25.9081 142.753 25.7519 143.132 25.5341C143.52 25.3163 143.714 24.9375 143.714 24.3977V24.2841C143.714 22.8826 143.331 21.7936 142.564 21.017C141.806 20.2405 140.656 19.8523 139.112 19.8523C137.512 19.8523 136.257 20.2027 135.348 20.9034C134.439 21.6042 133.8 22.3523 133.43 23.1477L130.249 22.0114C130.817 20.6856 131.574 19.6534 132.521 18.9148C133.478 18.1667 134.519 17.6458 135.646 17.3523C136.783 17.0492 137.9 16.8977 138.999 16.8977C139.699 16.8977 140.504 16.983 141.413 17.1534C142.332 17.3144 143.217 17.6506 144.07 18.1619C144.931 18.6733 145.646 19.4451 146.214 20.4773C146.783 21.5095 147.067 22.892 147.067 24.625V39H143.714V36.0455H143.544C143.317 36.5189 142.938 37.0256 142.408 37.5653C141.877 38.1051 141.172 38.5644 140.291 38.9432C139.411 39.322 138.336 39.5114 137.067 39.5114ZM137.578 36.5C138.904 36.5 140.021 36.2396 140.93 35.7188C141.849 35.1979 142.54 34.5256 143.004 33.7017C143.478 32.8778 143.714 32.0114 143.714 31.1023V28.0341C143.572 28.2045 143.26 28.3608 142.777 28.5028C142.304 28.6354 141.754 28.7538 141.129 28.858C140.514 28.9527 139.912 29.0379 139.325 29.1136C138.748 29.1799 138.279 29.2367 137.919 29.2841C137.048 29.3977 136.233 29.5824 135.476 29.8381C134.728 30.0843 134.122 30.4583 133.658 30.9602C133.203 31.4527 132.976 32.125 132.976 32.9773C132.976 34.142 133.407 35.0227 134.268 35.6193C135.14 36.2064 136.243 36.5 137.578 36.5ZM170.245 17.1818L162.177 39H158.768L150.7 17.1818H154.336L160.359 34.5682H160.586L166.609 17.1818H170.245ZM175.746 39.2273C175.045 39.2273 174.444 38.9763 173.942 38.4744C173.44 37.9725 173.189 37.3712 173.189 36.6705C173.189 35.9697 173.44 35.3684 173.942 34.8665C174.444 34.3646 175.045 34.1136 175.746 34.1136C176.446 34.1136 177.048 34.3646 177.55 34.8665C178.052 35.3684 178.303 35.9697 178.303 36.6705C178.303 37.1345 178.184 37.5606 177.947 37.9489C177.72 38.3371 177.412 38.6496 177.024 38.8864C176.645 39.1136 176.219 39.2273 175.746 39.2273ZM184.318 39V17.1818H187.67V39H184.318ZM186.023 13.5455C185.369 13.5455 184.806 13.3229 184.332 12.8778C183.868 12.4328 183.636 11.8977 183.636 11.2727C183.636 10.6477 183.868 10.1127 184.332 9.66761C184.806 9.22254 185.369 9 186.023 9C186.676 9 187.235 9.22254 187.699 9.66761C188.172 10.1127 188.409 10.6477 188.409 11.2727C188.409 11.8977 188.172 12.4328 187.699 12.8778C187.235 13.3229 186.676 13.5455 186.023 13.5455ZM202.674 39.4545C200.704 39.4545 198.976 38.9858 197.489 38.0483C196.012 37.1108 194.857 35.7992 194.023 34.1136C193.2 32.428 192.788 30.4583 192.788 28.2045C192.788 25.9318 193.2 23.9479 194.023 22.2528C194.857 20.5578 196.012 19.2415 197.489 18.304C198.976 17.3665 200.704 16.8977 202.674 16.8977C204.644 16.8977 206.367 17.3665 207.844 18.304C209.331 19.2415 210.487 20.5578 211.31 22.2528C212.144 23.9479 212.56 25.9318 212.56 28.2045C212.56 30.4583 212.144 32.428 211.31 34.1136C210.487 35.7992 209.331 37.1108 207.844 38.0483C206.367 38.9858 204.644 39.4545 202.674 39.4545ZM202.674 36.4432C204.17 36.4432 205.401 36.0597 206.367 35.2926C207.333 34.5256 208.048 33.517 208.512 32.267C208.976 31.017 209.208 29.6629 209.208 28.2045C209.208 26.7462 208.976 25.3873 208.512 24.1278C208.048 22.8684 207.333 21.8504 206.367 21.0739C205.401 20.2973 204.17 19.9091 202.674 19.9091C201.178 19.9091 199.947 20.2973 198.981 21.0739C198.015 21.8504 197.3 22.8684 196.836 24.1278C196.372 25.3873 196.14 26.7462 196.14 28.2045C196.14 29.6629 196.372 31.017 196.836 32.267C197.3 33.517 198.015 34.5256 198.981 35.2926C199.947 36.0597 201.178 36.4432 202.674 36.4432Z" fill="black"/>
<path d="M62.4432 39H61.4432V40H62.4432V39ZM62.4432 36.4432L61.6541 35.8289L61.4432 36.0998V36.4432H62.4432ZM74.8295 20.5341L75.6186 21.1484L75.8295 20.8775V20.5341H74.8295ZM74.8295 20.3068H75.8295V19.3068H74.8295V20.3068ZM62.8409 20.3068H61.8409V21.3068H62.8409V20.3068ZM62.8409 17.1818V16.1818H61.8409V17.1818H62.8409ZM79.1477 17.1818H80.1477V16.1818H79.1477V17.1818ZM79.1477 19.8523L79.9429 20.4587L80.1477 20.1901V19.8523H79.1477ZM67.1023 35.6477L66.3071 35.0413L66.1023 35.3099V35.6477H67.1023ZM67.1023 35.875H66.1023V36.875H67.1023V35.875ZM79.5455 35.875H80.5455V34.875H79.5455V35.875ZM79.5455 39V40H80.5455V39H79.5455ZM62.4432 39H63.4432V36.4432H62.4432H61.4432V39H62.4432ZM62.4432 36.4432L63.2322 37.0575L75.6186 21.1484L74.8295 20.5341L74.0405 19.9198L61.6541 35.8289L62.4432 36.4432ZM74.8295 20.5341H75.8295V20.3068H74.8295H73.8295V20.5341H74.8295ZM74.8295 20.3068V19.3068H62.8409V20.3068V21.3068H74.8295V20.3068ZM62.8409 20.3068H63.8409V17.1818H62.8409H61.8409V20.3068H62.8409ZM62.8409 17.1818V18.1818H79.1477V17.1818V16.1818H62.8409V17.1818ZM79.1477 17.1818H78.1477V19.8523H79.1477H80.1477V17.1818H79.1477ZM79.1477 19.8523L78.3526 19.2459L66.3071 35.0413L67.1023 35.6477L67.8974 36.2541L79.9429 20.4587L79.1477 19.8523ZM67.1023 35.6477H66.1023V35.875H67.1023H68.1023V35.6477H67.1023ZM67.1023 35.875V36.875H79.5455V35.875V34.875H67.1023V35.875ZM79.5455 35.875H78.5455V39H79.5455H80.5455V35.875H79.5455ZM79.5455 39V38H62.4432V39V40H79.5455V39ZM87.3651 38.7301L86.9392 39.635L86.9455 39.6378L87.3651 38.7301ZM84.6804 36.4432L83.8459 36.9942L83.8483 36.9979L84.6804 36.4432ZM84.4247 29.767L85.2692 30.3026L85.2721 30.298L84.4247 29.767ZM89.1264 26.9261L89.3404 27.903L89.3472 27.9014L89.1264 26.9261ZM92.152 26.3864L92.0245 25.3945L92.0223 25.3948L92.152 26.3864ZM95.3764 26.0028L95.4793 26.9976L95.4893 26.9964L95.3764 26.0028ZM97.1946 25.5341L96.7053 24.6619L96.6961 24.6672L97.1946 25.5341ZM96.6264 21.017L95.9106 21.7154L95.915 21.7198L96.6264 21.017ZM89.4105 20.9034L90.021 21.6954L90.021 21.6954L89.4105 20.9034ZM87.4929 23.1477L87.1566 24.0895L88.0157 24.3963L88.3999 23.5688L87.4929 23.1477ZM84.3111 22.0114L83.3919 21.6174L82.9729 22.5953L83.9747 22.9531L84.3111 22.0114ZM86.5838 18.9148L87.1988 19.7033L87.1999 19.7024L86.5838 18.9148ZM89.7088 17.3523L89.9609 18.32L89.9665 18.3185L89.7088 17.3523ZM95.4759 17.1534L95.2916 18.1363L95.3032 18.1384L95.4759 17.1534ZM98.1321 18.1619L97.6176 19.0194L97.6218 19.0219L98.1321 18.1619ZM100.277 20.4773L99.4009 20.9595L99.4009 20.9595L100.277 20.4773ZM101.129 39V40H102.129V39H101.129ZM97.777 39H96.777V40H97.777V39ZM97.777 36.0455H98.777V35.0455H97.777V36.0455ZM97.6065 36.0455V35.0455H96.9773L96.705 35.6127L97.6065 36.0455ZM96.4702 37.5653L97.1835 38.2662L97.1835 38.2662L96.4702 37.5653ZM94.3537 38.9432L93.9586 38.0245L93.9586 38.0245L94.3537 38.9432ZM94.9929 35.7188L94.4997 34.8488L94.4958 34.8511L94.9929 35.7188ZM97.0668 33.7017L96.1997 33.2034L96.1955 33.211L97.0668 33.7017ZM97.777 28.0341H98.777V25.272L97.0088 27.3939L97.777 28.0341ZM96.8395 28.5028L97.1091 29.4659L97.1217 29.4622L96.8395 28.5028ZM95.1918 28.858L95.3438 29.8464L95.3562 29.8443L95.1918 28.858ZM93.3878 29.1136L93.5018 30.1072L93.5158 30.1054L93.3878 29.1136ZM91.9815 29.2841L92.1109 30.2757L92.112 30.2755L91.9815 29.2841ZM89.5384 29.8381L89.851 30.788L89.8581 30.7856L89.5384 29.8381ZM87.7202 30.9602L86.9859 30.2814L86.9854 30.2819L87.7202 30.9602ZM88.331 35.6193L87.7617 36.4416L87.7721 36.4486L88.331 35.6193ZM91.1293 39.5114V38.5114C89.875 38.5114 88.7657 38.2758 87.7846 37.8224L87.3651 38.7301L86.9455 39.6378C88.2182 40.2261 89.6184 40.5114 91.1293 40.5114V39.5114ZM87.3651 38.7301L87.7909 37.8253C86.8215 37.3691 86.0699 36.7247 85.5124 35.8885L84.6804 36.4432L83.8483 36.9979C84.6166 38.1503 85.6549 39.0305 86.9393 39.6349L87.3651 38.7301ZM84.6804 36.4432L85.5149 35.8921C84.9783 35.0796 84.6861 34.0674 84.6861 32.8068H83.6861H82.6861C82.6861 34.3871 83.0568 35.7992 83.8459 36.9942L84.6804 36.4432ZM83.6861 32.8068H84.6861C84.6861 31.6804 84.9087 30.8711 85.2692 30.3026L84.4247 29.767L83.5802 29.2315C82.9559 30.216 82.6861 31.4332 82.6861 32.8068H83.6861ZM84.4247 29.767L85.2721 30.298C85.6719 29.66 86.2012 29.164 86.8745 28.8003L86.3991 27.9205L85.9238 27.0406C84.9494 27.5671 84.1624 28.3022 83.5773 29.2361L84.4247 29.767ZM86.3991 27.9205L86.8745 28.8003C87.6094 28.4033 88.4294 28.1025 89.3404 27.903L89.1264 26.9261L88.9124 25.9493C87.8348 26.1854 86.8367 26.5475 85.9238 27.0406L86.3991 27.9205ZM89.1264 26.9261L89.3472 27.9014C90.3212 27.6809 91.2993 27.5065 92.2817 27.3779L92.152 26.3864L92.0223 25.3948C90.9782 25.5314 89.9393 25.7168 88.9056 25.9508L89.1264 26.9261ZM92.152 26.3864L92.2795 27.3782C93.6014 27.2082 94.6671 27.0816 95.4793 26.9975L95.3764 26.0028L95.2735 25.0081C94.438 25.0946 93.3541 25.2236 92.0245 25.3945L92.152 26.3864ZM95.3764 26.0028L95.4893 26.9964C96.3565 26.8979 97.131 26.7242 97.6931 26.401L97.1946 25.5341L96.6961 24.6672C96.5006 24.7796 96.063 24.9184 95.2635 25.0092L95.3764 26.0028ZM97.1946 25.5341L97.6839 26.4062C98.4596 25.9711 98.777 25.2083 98.777 24.3977H97.777H96.777C96.777 24.5504 96.7494 24.6151 96.7415 24.6306C96.7376 24.6381 96.7352 24.6406 96.7338 24.642C96.7322 24.6437 96.7247 24.6511 96.7054 24.6619L97.1946 25.5341ZM97.777 24.3977H98.777V24.2841H97.777H96.777V24.3977H97.777ZM97.777 24.2841H98.777C98.777 22.6976 98.3382 21.327 97.3379 20.3143L96.6264 21.017L95.915 21.7198C96.4487 22.2601 96.777 23.0676 96.777 24.2841H97.777ZM96.6264 21.017L97.3422 20.3187C96.3288 19.28 94.8724 18.8523 93.1747 18.8523V19.8523V20.8523C94.5642 20.8523 95.4089 21.2011 95.9106 21.7154L96.6264 21.017ZM93.1747 19.8523V18.8523C91.4388 18.8523 89.9414 19.2316 88.8 20.1114L89.4105 20.9034L90.021 21.6954C90.6978 21.1737 91.7098 20.8523 93.1747 20.8523V19.8523ZM89.4105 20.9034L88.8 20.1114C87.8016 20.881 87.0405 21.7476 86.5859 22.7266L87.4929 23.1477L88.3999 23.5688C88.684 22.957 89.2012 22.3274 90.021 21.6954L89.4105 20.9034ZM87.4929 23.1477L87.8292 22.206L84.6474 21.0696L84.3111 22.0114L83.9747 22.9531L87.1566 24.0895L87.4929 23.1477ZM84.3111 22.0114L85.2302 22.4053C85.7453 21.2035 86.4092 20.3192 87.1988 19.7033L86.5838 18.9148L85.9688 18.1263C84.8644 18.9876 84.0133 20.1677 83.3919 21.6174L84.3111 22.0114ZM86.5838 18.9148L87.1999 19.7024C88.0533 19.0349 88.972 18.5776 89.9609 18.32L89.7088 17.3523L89.4567 16.3846C88.1918 16.7141 87.0272 17.2984 85.9677 18.1271L86.5838 18.9148ZM89.7088 17.3523L89.9665 18.3185C91.0247 18.0363 92.0555 17.8977 93.0611 17.8977V16.8977V15.8977C91.8697 15.8977 90.6657 16.0622 89.4511 16.386L89.7088 17.3523ZM93.0611 16.8977V17.8977C93.684 17.8977 94.4252 17.9738 95.2916 18.1363L95.4759 17.1534L95.6601 16.1705C94.7083 15.9921 93.8396 15.8977 93.0611 15.8977V16.8977ZM95.4759 17.1534L95.3032 18.1384C96.0932 18.2768 96.8635 18.567 97.6176 19.0194L98.1321 18.1619L98.6466 17.3044C97.6961 16.7342 96.6956 16.3519 95.6485 16.1684L95.4759 17.1534ZM98.1321 18.1619L97.6218 19.0219C98.305 19.4273 98.9035 20.0559 99.4009 20.9595L100.277 20.4773L101.153 19.995C100.514 18.8343 99.6827 17.9193 98.6424 17.3019L98.1321 18.1619ZM100.277 20.4773L99.4009 20.9595C99.8584 21.7906 100.129 22.9869 100.129 24.625H101.129H102.129C102.129 22.7972 101.832 21.2283 101.153 19.995L100.277 20.4773ZM101.129 24.625H100.129V39H101.129H102.129V24.625H101.129ZM101.129 39V38H97.777V39V40H101.129V39ZM97.777 39H98.777V36.0455H97.777H96.777V39H97.777ZM97.777 36.0455V35.0455H97.6065V36.0455V37.0455H97.777V36.0455ZM97.6065 36.0455L96.705 35.6127C96.5413 35.9539 96.241 36.3717 95.7568 36.8645L96.4702 37.5653L97.1835 38.2662C97.7599 37.6795 98.2173 37.084 98.5081 36.4782L97.6065 36.0455ZM96.4702 37.5653L95.7568 36.8645C95.3382 37.2906 94.7506 37.6839 93.9586 38.0245L94.3537 38.9432L94.7488 39.8618C95.7181 39.4449 96.5415 38.9196 97.1835 38.2662L96.4702 37.5653ZM94.3537 38.9432L93.9586 38.0245C93.2361 38.3353 92.3041 38.5114 91.1293 38.5114V39.5114V40.5114C92.4923 40.5114 93.71 40.3086 94.7488 39.8618L94.3537 38.9432ZM91.6406 36.5V37.5C93.0953 37.5 94.3945 37.2141 95.49 36.5864L94.9929 35.7188L94.4958 34.8511C93.7732 35.2651 92.8375 35.5 91.6406 35.5V36.5ZM94.9929 35.7188L95.4861 36.5886C96.5439 35.9889 97.3747 35.1927 97.9381 34.1924L97.0668 33.7017L96.1955 33.211C95.8308 33.8585 95.279 34.4069 94.4997 34.8489L94.9929 35.7188ZM97.0668 33.7017L97.9338 34.2C98.4903 33.2317 98.777 32.1943 98.777 31.1023H97.777H96.777C96.777 31.8284 96.5902 32.524 96.1997 33.2034L97.0668 33.7017ZM97.777 31.1023H98.777V28.0341H97.777H96.777V31.1023H97.777ZM97.777 28.0341L97.0088 27.3939C97.0622 27.3298 97.0849 27.3367 96.9889 27.3847C96.9031 27.4276 96.7645 27.4825 96.5573 27.5435L96.8395 28.5028L97.1217 29.4622C97.3974 29.3811 97.6565 29.2869 97.8833 29.1735C98.0998 29.0653 98.3497 28.9088 98.5452 28.6743L97.777 28.0341ZM96.8395 28.5028L96.5699 27.5399C96.1392 27.6605 95.6264 27.7717 95.0274 27.8716L95.1918 28.858L95.3562 29.8443C96.0071 29.7359 96.5928 29.6104 97.1091 29.4658L96.8395 28.5028ZM95.1918 28.858L95.0397 27.8696C94.4318 27.9631 93.8385 28.0472 93.2598 28.1219L93.3878 29.1136L93.5158 30.1054C94.1113 30.0286 94.7207 29.9422 95.3438 29.8463L95.1918 28.858ZM93.3878 29.1136L93.2738 28.1202C92.6935 28.1867 92.2186 28.2443 91.8511 28.2926L91.9815 29.2841L92.112 30.2755C92.4641 30.2292 92.9268 30.1731 93.5018 30.1071L93.3878 29.1136ZM91.9815 29.2841L91.8522 28.2925C90.9225 28.4138 90.0438 28.6121 89.2186 28.8906L89.5384 29.8381L89.8581 30.7856C90.5481 30.5527 91.2981 30.3817 92.1109 30.2757L91.9815 29.2841ZM89.5384 29.8381L89.2257 28.8882C88.3411 29.1793 87.5817 29.6369 86.9859 30.2814L87.7202 30.9602L88.4544 31.6391C88.7867 31.2797 89.2393 30.9892 89.851 30.7879L89.5384 29.8381ZM87.7202 30.9602L86.9854 30.2819C86.3177 31.0053 86.0384 31.9445 86.0384 32.9773H87.0384H88.0384C88.0384 32.3055 88.2136 31.9 88.455 31.6385L87.7202 30.9602ZM87.0384 32.9773H86.0384C86.0384 34.4275 86.5969 35.6351 87.7618 36.4415L88.331 35.6193L88.9002 34.7971C88.3415 34.4104 88.0384 33.8566 88.0384 32.9773H87.0384ZM88.331 35.6193L87.7721 36.4486C88.8481 37.1737 90.1601 37.5 91.6406 37.5V36.5V35.5C90.4507 35.5 89.5563 35.2392 88.8898 34.7901L88.331 35.6193ZM110.6 39V40H111.6V39H110.6ZM107.248 39H106.248V40H107.248V39ZM107.248 17.1818V16.1818H106.248V17.1818H107.248ZM110.487 17.1818H111.487V16.1818H110.487V17.1818ZM110.487 20.5909H109.487V21.5909H110.487V20.5909ZM110.771 20.5909V21.5909H111.41L111.679 21.01L110.771 20.5909ZM113.1 17.9205L113.642 18.7607L113.648 18.7572L113.1 17.9205ZM121.012 17.8068L120.532 18.6842L120.538 18.6873L121.012 17.8068ZM123.597 20.5341L122.704 20.9841L122.706 20.9869L123.597 20.5341ZM124.521 39V40H125.521V39H124.521ZM121.168 39H120.168V40H121.168V39ZM119.833 21.358L119.098 22.0356L119.101 22.0392L119.833 21.358ZM113.299 20.6051L112.817 19.7291L112.813 19.7314L113.299 20.6051ZM111.325 22.6364L110.446 22.1595L110.446 22.1595L111.325 22.6364ZM110.6 25.875H109.6V39H110.6H111.6V25.875H110.6ZM110.6 39V38H107.248V39V40H110.6V39ZM107.248 39H108.248V17.1818H107.248H106.248V39H107.248ZM107.248 17.1818V18.1818H110.487V17.1818V16.1818H107.248V17.1818ZM110.487 17.1818H109.487V20.5909H110.487H111.487V17.1818H110.487ZM110.487 20.5909V21.5909H110.771V20.5909V19.5909H110.487V20.5909ZM110.771 20.5909L111.679 21.01C112.109 20.0771 112.757 19.3319 113.642 18.7606L113.1 17.9205L112.558 17.0803C111.36 17.8537 110.455 18.8888 109.863 20.1719L110.771 20.5909ZM113.1 17.9205L113.648 18.7572C114.482 18.2113 115.619 17.8977 117.134 17.8977V16.8977V15.8977C115.354 15.8977 113.802 16.266 112.552 17.0838L113.1 17.9205ZM117.134 16.8977V17.8977C118.472 17.8977 119.595 18.1713 120.532 18.6841L121.012 17.8068L121.492 16.9295C120.214 16.2303 118.751 15.8977 117.134 15.8977V16.8977ZM121.012 17.8068L120.538 18.6873C121.45 19.1782 122.173 19.9288 122.704 20.9841L123.597 20.5341L124.49 20.0841C123.791 18.6962 122.79 17.6286 121.486 16.9263L121.012 17.8068ZM123.597 20.5341L122.706 20.9869C123.229 22.017 123.521 23.3831 123.521 25.1364H124.521H125.521C125.521 23.1775 125.197 21.4754 124.489 20.0813L123.597 20.5341ZM124.521 25.1364H123.521V39H124.521H125.521V25.1364H124.521ZM124.521 39V38H121.168V39V40H124.521V39ZM121.168 39H122.168V25.3636H121.168H120.168V39H121.168ZM121.168 25.3636H122.168C122.168 23.4778 121.676 21.87 120.565 20.6767L119.833 21.358L119.101 22.0392C119.771 22.7588 120.168 23.8214 120.168 25.3636H121.168ZM119.833 21.358L120.568 20.6803C119.454 19.4714 117.945 18.9091 116.168 18.9091V19.9091V20.9091C117.497 20.9091 118.432 21.3127 119.098 22.0356L119.833 21.358ZM116.168 19.9091V18.9091C114.949 18.9091 113.823 19.1749 112.817 19.7291L113.299 20.6051L113.781 21.4811C114.46 21.1073 115.248 20.9091 116.168 20.9091V19.9091ZM113.299 20.6051L112.813 19.7314C111.803 20.2936 111.013 21.1133 110.446 22.1595L111.325 22.6364L112.204 23.1132C112.602 22.3791 113.128 21.8447 113.785 21.4788L113.299 20.6051ZM111.325 22.6364L110.446 22.1595C109.866 23.2285 109.6 24.4809 109.6 25.875H110.6H111.6C111.6 24.7312 111.818 23.8245 112.204 23.1132L111.325 22.6364ZM133.303 38.7301L132.877 39.635L132.883 39.6378L133.303 38.7301ZM130.618 36.4432L129.783 36.9942L129.786 36.9979L130.618 36.4432ZM130.362 29.767L131.207 30.3026L131.21 30.298L130.362 29.767ZM135.064 26.9261L135.278 27.903L135.285 27.9014L135.064 26.9261ZM138.089 26.3864L137.962 25.3945L137.96 25.3948L138.089 26.3864ZM141.314 26.0028L141.417 26.9976L141.427 26.9964L141.314 26.0028ZM143.132 25.5341L142.643 24.6619L142.634 24.6672L143.132 25.5341ZM142.564 21.017L141.848 21.7154L141.852 21.7198L142.564 21.017ZM135.348 20.9034L135.959 21.6954L135.959 21.6954L135.348 20.9034ZM133.43 23.1477L133.094 24.0895L133.953 24.3963L134.337 23.5688L133.43 23.1477ZM130.249 22.0114L129.329 21.6174L128.91 22.5953L129.912 22.9531L130.249 22.0114ZM132.521 18.9148L133.136 19.7033L133.137 19.7024L132.521 18.9148ZM135.646 17.3523L135.898 18.32L135.904 18.3185L135.646 17.3523ZM141.413 17.1534L141.229 18.1363L141.241 18.1384L141.413 17.1534ZM144.07 18.1619L143.555 19.0194L143.559 19.0219L144.07 18.1619ZM146.214 20.4773L145.338 20.9595L145.338 20.9595L146.214 20.4773ZM147.067 39V40H148.067V39H147.067ZM143.714 39H142.714V40H143.714V39ZM143.714 36.0455H144.714V35.0455H143.714V36.0455ZM143.544 36.0455V35.0455H142.915L142.643 35.6127L143.544 36.0455ZM142.408 37.5653L143.121 38.2662L143.121 38.2662L142.408 37.5653ZM140.291 38.9432L139.896 38.0245L139.896 38.0245L140.291 38.9432ZM140.93 35.7188L140.437 34.8488L140.433 34.8511L140.93 35.7188ZM143.004 33.7017L142.137 33.2034L142.133 33.211L143.004 33.7017ZM143.714 28.0341H144.714V25.272L142.946 27.3939L143.714 28.0341ZM142.777 28.5028L143.047 29.4659L143.059 29.4622L142.777 28.5028ZM141.129 28.858L141.281 29.8464L141.294 29.8443L141.129 28.858ZM139.325 29.1136L139.439 30.1072L139.453 30.1054L139.325 29.1136ZM137.919 29.2841L138.048 30.2757L138.049 30.2755L137.919 29.2841ZM135.476 29.8381L135.788 30.788L135.796 30.7856L135.476 29.8381ZM133.658 30.9602L132.923 30.2814L132.923 30.2819L133.658 30.9602ZM134.268 35.6193L133.699 36.4416L133.71 36.4486L134.268 35.6193ZM137.067 39.5114V38.5114C135.812 38.5114 134.703 38.2758 133.722 37.8224L133.303 38.7301L132.883 39.6378C134.156 40.2261 135.556 40.5114 137.067 40.5114V39.5114ZM133.303 38.7301L133.728 37.8253C132.759 37.3691 132.007 36.7247 131.45 35.8885L130.618 36.4432L129.786 36.9979C130.554 38.1503 131.592 39.0305 132.877 39.6349L133.303 38.7301ZM130.618 36.4432L131.452 35.8921C130.916 35.0796 130.624 34.0674 130.624 32.8068H129.624H128.624C128.624 34.3871 128.994 35.7992 129.783 36.9942L130.618 36.4432ZM129.624 32.8068H130.624C130.624 31.6804 130.846 30.8711 131.207 30.3026L130.362 29.767L129.518 29.2315C128.893 30.216 128.624 31.4332 128.624 32.8068H129.624ZM130.362 29.767L131.21 30.298C131.609 29.66 132.139 29.164 132.812 28.8003L132.337 27.9205L131.861 27.0406C130.887 27.5671 130.1 28.3022 129.515 29.2361L130.362 29.767ZM132.337 27.9205L132.812 28.8003C133.547 28.4033 134.367 28.1025 135.278 27.903L135.064 26.9261L134.85 25.9493C133.772 26.1854 132.774 26.5475 131.861 27.0406L132.337 27.9205ZM135.064 26.9261L135.285 27.9014C136.259 27.6809 137.237 27.5065 138.219 27.3779L138.089 26.3864L137.96 25.3948C136.916 25.5314 135.877 25.7168 134.843 25.9508L135.064 26.9261ZM138.089 26.3864L138.217 27.3782C139.539 27.2082 140.605 27.0816 141.417 26.9975L141.314 26.0028L141.211 25.0081C140.376 25.0946 139.292 25.2236 137.962 25.3945L138.089 26.3864ZM141.314 26.0028L141.427 26.9964C142.294 26.8979 143.068 26.7242 143.631 26.401L143.132 25.5341L142.634 24.6672C142.438 24.7796 142 24.9184 141.201 25.0092L141.314 26.0028ZM143.132 25.5341L143.621 26.4062C144.397 25.9711 144.714 25.2083 144.714 24.3977H143.714H142.714C142.714 24.5504 142.687 24.6151 142.679 24.6306C142.675 24.6381 142.673 24.6406 142.671 24.642C142.67 24.6437 142.662 24.6511 142.643 24.6619L143.132 25.5341ZM143.714 24.3977H144.714V24.2841H143.714H142.714V24.3977H143.714ZM143.714 24.2841H144.714C144.714 22.6976 144.276 21.327 143.275 20.3143L142.564 21.017L141.852 21.7198C142.386 22.2601 142.714 23.0676 142.714 24.2841H143.714ZM142.564 21.017L143.28 20.3187C142.266 19.28 140.81 18.8523 139.112 18.8523V19.8523V20.8523C140.502 20.8523 141.346 21.2011 141.848 21.7154L142.564 21.017ZM139.112 19.8523V18.8523C137.376 18.8523 135.879 19.2316 134.738 20.1114L135.348 20.9034L135.959 21.6954C136.635 21.1737 137.647 20.8523 139.112 20.8523V19.8523ZM135.348 20.9034L134.738 20.1114C133.739 20.881 132.978 21.7476 132.523 22.7266L133.43 23.1477L134.337 23.5688C134.621 22.957 135.139 22.3274 135.959 21.6954L135.348 20.9034ZM133.43 23.1477L133.767 22.206L130.585 21.0696L130.249 22.0114L129.912 22.9531L133.094 24.0895L133.43 23.1477ZM130.249 22.0114L131.168 22.4053C131.683 21.2035 132.347 20.3192 133.136 19.7033L132.521 18.9148L131.906 18.1263C130.802 18.9876 129.951 20.1677 129.329 21.6174L130.249 22.0114ZM132.521 18.9148L133.137 19.7024C133.991 19.0349 134.91 18.5776 135.898 18.32L135.646 17.3523L135.394 16.3846C134.129 16.7141 132.965 17.2984 131.905 18.1271L132.521 18.9148ZM135.646 17.3523L135.904 18.3185C136.962 18.0363 137.993 17.8977 138.999 17.8977V16.8977V15.8977C137.807 15.8977 136.603 16.0622 135.389 16.386L135.646 17.3523ZM138.999 16.8977V17.8977C139.622 17.8977 140.363 17.9738 141.229 18.1363L141.413 17.1534L141.598 16.1705C140.646 15.9921 139.777 15.8977 138.999 15.8977V16.8977ZM141.413 17.1534L141.241 18.1384C142.031 18.2768 142.801 18.567 143.555 19.0194L144.07 18.1619L144.584 17.3044C143.634 16.7342 142.633 16.3519 141.586 16.1684L141.413 17.1534ZM144.07 18.1619L143.559 19.0219C144.242 19.4273 144.841 20.0559 145.338 20.9595L146.214 20.4773L147.091 19.995C146.452 18.8343 145.62 17.9193 144.58 17.3019L144.07 18.1619ZM146.214 20.4773L145.338 20.9595C145.796 21.7906 146.067 22.9869 146.067 24.625H147.067H148.067C148.067 22.7972 147.769 21.2283 147.091 19.995L146.214 20.4773ZM147.067 24.625H146.067V39H147.067H148.067V24.625H147.067ZM147.067 39V38H143.714V39V40H147.067V39ZM143.714 39H144.714V36.0455H143.714H142.714V39H143.714ZM143.714 36.0455V35.0455H143.544V36.0455V37.0455H143.714V36.0455ZM143.544 36.0455L142.643 35.6127C142.479 35.9539 142.179 36.3717 141.694 36.8645L142.408 37.5653L143.121 38.2662C143.697 37.6795 144.155 37.084 144.446 36.4782L143.544 36.0455ZM142.408 37.5653L141.694 36.8645C141.276 37.2906 140.688 37.6839 139.896 38.0245L140.291 38.9432L140.686 39.8618C141.656 39.4449 142.479 38.9196 143.121 38.2662L142.408 37.5653ZM140.291 38.9432L139.896 38.0245C139.174 38.3353 138.242 38.5114 137.067 38.5114V39.5114V40.5114C138.43 40.5114 139.647 40.3086 140.686 39.8618L140.291 38.9432ZM137.578 36.5V37.5C139.033 37.5 140.332 37.2141 141.428 36.5864L140.93 35.7188L140.433 34.8511C139.711 35.2651 138.775 35.5 137.578 35.5V36.5ZM140.93 35.7188L141.424 36.5886C142.481 35.9889 143.312 35.1927 143.876 34.1924L143.004 33.7017L142.133 33.211C141.768 33.8585 141.217 34.4069 140.437 34.8489L140.93 35.7188ZM143.004 33.7017L143.871 34.2C144.428 33.2317 144.714 32.1943 144.714 31.1023H143.714H142.714C142.714 31.8284 142.528 32.524 142.137 33.2034L143.004 33.7017ZM143.714 31.1023H144.714V28.0341H143.714H142.714V31.1023H143.714ZM143.714 28.0341L142.946 27.3939C143 27.3298 143.022 27.3367 142.926 27.3847C142.841 27.4276 142.702 27.4825 142.495 27.5435L142.777 28.5028L143.059 29.4622C143.335 29.3811 143.594 29.2869 143.821 29.1735C144.037 29.0653 144.287 28.9088 144.483 28.6743L143.714 28.0341ZM142.777 28.5028L142.507 27.5399C142.077 27.6605 141.564 27.7717 140.965 27.8716L141.129 28.858L141.294 29.8443C141.945 29.7359 142.53 29.6104 143.047 29.4658L142.777 28.5028ZM141.129 28.858L140.977 27.8696C140.369 27.9631 139.776 28.0472 139.197 28.1219L139.325 29.1136L139.453 30.1054C140.049 30.0286 140.658 29.9422 141.281 29.8463L141.129 28.858ZM139.325 29.1136L139.211 28.1202C138.631 28.1867 138.156 28.2443 137.789 28.2926L137.919 29.2841L138.049 30.2755C138.402 30.2292 138.864 30.1731 139.439 30.1071L139.325 29.1136ZM137.919 29.2841L137.79 28.2925C136.86 28.4138 135.981 28.6121 135.156 28.8906L135.476 29.8381L135.796 30.7856C136.486 30.5527 137.236 30.3817 138.048 30.2757L137.919 29.2841ZM135.476 29.8381L135.163 28.8882C134.279 29.1793 133.519 29.6369 132.923 30.2814L133.658 30.9602L134.392 31.6391C134.724 31.2797 135.177 30.9892 135.788 30.7879L135.476 29.8381ZM133.658 30.9602L132.923 30.2819C132.255 31.0053 131.976 31.9445 131.976 32.9773H132.976H133.976C133.976 32.3055 134.151 31.9 134.392 31.6385L133.658 30.9602ZM132.976 32.9773H131.976C131.976 34.4275 132.534 35.6351 133.699 36.4415L134.268 35.6193L134.838 34.7971C134.279 34.4104 133.976 33.8566 133.976 32.9773H132.976ZM134.268 35.6193L133.71 36.4486C134.786 37.1737 136.098 37.5 137.578 37.5V36.5V35.5C136.388 35.5 135.494 35.2392 134.827 34.7901L134.268 35.6193ZM170.245 17.1818L171.183 17.5287L171.681 16.1818H170.245V17.1818ZM162.177 39V40H162.873L163.115 39.3468L162.177 39ZM158.768 39L157.83 39.3468L158.071 40H158.768V39ZM150.7 17.1818V16.1818H149.264L149.762 17.5287L150.7 17.1818ZM154.336 17.1818L155.281 16.8545L155.048 16.1818H154.336V17.1818ZM160.359 34.5682L159.414 34.8955L159.647 35.5682H160.359V34.5682ZM160.586 34.5682V35.5682H161.298L161.531 34.8955L160.586 34.5682ZM166.609 17.1818V16.1818H165.897L165.664 16.8545L166.609 17.1818ZM170.245 17.1818L169.307 16.835L161.239 38.6532L162.177 39L163.115 39.3468L171.183 17.5287L170.245 17.1818ZM162.177 39V38H158.768V39V40H162.177V39ZM158.768 39L159.706 38.6532L151.637 16.835L150.7 17.1818L149.762 17.5287L157.83 39.3468L158.768 39ZM150.7 17.1818V18.1818H154.336V17.1818V16.1818H150.7V17.1818ZM154.336 17.1818L153.391 17.5091L159.414 34.8955L160.359 34.5682L161.304 34.2409L155.281 16.8545L154.336 17.1818ZM160.359 34.5682V35.5682H160.586V34.5682V33.5682H160.359V34.5682ZM160.586 34.5682L161.531 34.8955L167.554 17.5091L166.609 17.1818L165.664 16.8545L159.641 34.2409L160.586 34.5682ZM166.609 17.1818V18.1818H170.245V17.1818V16.1818H166.609V17.1818ZM173.942 38.4744L174.649 37.7673L174.649 37.7673L173.942 38.4744ZM177.55 34.8665L178.257 34.1594L178.257 34.1594L177.55 34.8665ZM177.947 37.9489L177.094 37.4283L177.089 37.4359L177.084 37.4437L177.947 37.9489ZM177.024 38.8864L177.539 39.7439L177.545 39.7402L177.024 38.8864ZM175.746 39.2273V38.2273C175.314 38.2273 174.966 38.0844 174.649 37.7673L173.942 38.4744L173.235 39.1815C173.921 39.8683 174.776 40.2273 175.746 40.2273V39.2273ZM173.942 38.4744L174.649 37.7673C174.332 37.4503 174.189 37.1022 174.189 36.6705H173.189H172.189C172.189 37.6402 172.548 38.4948 173.235 39.1815L173.942 38.4744ZM173.189 36.6705H174.189C174.189 36.2387 174.332 35.8907 174.649 35.5736L173.942 34.8665L173.235 34.1594C172.548 34.8461 172.189 35.7007 172.189 36.6705H173.189ZM173.942 34.8665L174.649 35.5736C174.966 35.2565 175.314 35.1136 175.746 35.1136V34.1136V33.1136C174.776 33.1136 173.921 33.4727 173.235 34.1594L173.942 34.8665ZM175.746 34.1136V35.1136C176.177 35.1136 176.526 35.2565 176.843 35.5736L177.55 34.8665L178.257 34.1594C177.57 33.4727 176.716 33.1136 175.746 33.1136V34.1136ZM177.55 34.8665L176.843 35.5736C177.16 35.8907 177.303 36.2387 177.303 36.6705H178.303H179.303C179.303 35.7007 178.944 34.8461 178.257 34.1594L177.55 34.8665ZM178.303 36.6705H177.303C177.303 36.9547 177.233 37.2001 177.094 37.4283L177.947 37.9489L178.801 38.4695C179.136 37.9211 179.303 37.3142 179.303 36.6705H178.303ZM177.947 37.9489L177.084 37.4437C176.942 37.6876 176.752 37.881 176.504 38.0326L177.024 38.8864L177.545 39.7402C178.073 39.4183 178.499 38.9866 178.81 38.454L177.947 37.9489ZM177.024 38.8864L176.51 38.0289C176.297 38.1562 176.052 38.2273 175.746 38.2273V39.2273V40.2273C176.387 40.2273 176.993 40.0711 177.539 39.7439L177.024 38.8864ZM184.318 39H183.318V40H184.318V39ZM184.318 17.1818V16.1818H183.318V17.1818H184.318ZM187.67 17.1818H188.67V16.1818H187.67V17.1818ZM187.67 39V40H188.67V39H187.67ZM184.332 12.8778L183.64 13.5996L183.647 13.6065L184.332 12.8778ZM184.332 9.66761L183.647 8.93895L183.64 8.94593L184.332 9.66761ZM187.699 9.66761L187.007 10.3893L187.014 10.3962L187.699 9.66761ZM187.699 12.8778L187.014 12.1492L187.007 12.1562L187.699 12.8778ZM184.318 39H185.318V17.1818H184.318H183.318V39H184.318ZM184.318 17.1818V18.1818H187.67V17.1818V16.1818H184.318V17.1818ZM187.67 17.1818H186.67V39H187.67H188.67V17.1818H187.67ZM187.67 39V38H184.318V39V40H187.67V39ZM186.023 13.5455V12.5455C185.622 12.5455 185.304 12.4189 185.017 12.1492L184.332 12.8778L183.647 13.6065C184.308 14.2269 185.116 14.5455 186.023 14.5455V13.5455ZM184.332 12.8778L185.025 12.1562C184.751 11.8936 184.636 11.6166 184.636 11.2727H183.636H182.636C182.636 12.1789 182.986 12.972 183.64 13.5995L184.332 12.8778ZM183.636 11.2727H184.636C184.636 10.9289 184.751 10.6519 185.025 10.3893L184.332 9.66761L183.64 8.94593C182.986 9.57349 182.636 10.3666 182.636 11.2727H183.636ZM184.332 9.66761L185.017 10.3962C185.304 10.1266 185.622 10 186.023 10V9V8C185.116 8 184.308 8.31852 183.647 8.93898L184.332 9.66761ZM186.023 9V10C186.423 10 186.732 10.126 187.007 10.3893L187.699 9.66761L188.391 8.94593C187.738 8.31905 186.929 8 186.023 8V9ZM187.699 9.66761L187.014 10.3962C187.295 10.6608 187.409 10.9358 187.409 11.2727H188.409H189.409C189.409 10.3597 189.049 9.5646 188.384 8.93899L187.699 9.66761ZM188.409 11.2727H187.409C187.409 11.6097 187.295 11.8847 187.014 12.1492L187.699 12.8778L188.384 13.6065C189.049 12.9809 189.409 12.1858 189.409 11.2727H188.409ZM187.699 12.8778L187.007 12.1562C186.732 12.4194 186.423 12.5455 186.023 12.5455V13.5455V14.5455C186.929 14.5455 187.738 14.2264 188.391 13.5995L187.699 12.8778ZM197.489 38.0483L196.954 38.8926L196.956 38.8942L197.489 38.0483ZM194.023 34.1136L193.125 34.5528L193.127 34.5568L194.023 34.1136ZM194.023 22.2528L193.126 21.8116L193.124 21.8157L194.023 22.2528ZM197.489 18.304L196.956 17.4581L196.954 17.4596L197.489 18.304ZM207.844 18.304L207.309 19.1483L207.311 19.1499L207.844 18.304ZM211.31 22.2528L210.411 22.69L210.413 22.694L211.31 22.2528ZM211.31 34.1136L210.414 33.6705L210.412 33.6745L211.31 34.1136ZM207.844 38.0483L207.311 37.2024L207.309 37.204L207.844 38.0483ZM206.367 35.2926L205.745 34.5095L205.745 34.5095L206.367 35.2926ZM208.512 32.267L209.45 32.6151L209.45 32.6151L208.512 32.267ZM208.512 24.1278L209.45 23.7821L209.45 23.7821L208.512 24.1278ZM206.367 21.0739L206.994 20.2945L206.994 20.2945L206.367 21.0739ZM198.981 21.0739L198.354 20.2945L198.354 20.2945L198.981 21.0739ZM196.836 24.1278L195.898 23.7821L195.898 23.7821L196.836 24.1278ZM196.836 32.267L195.898 32.6151L195.898 32.6151L196.836 32.267ZM198.981 35.2926L199.603 34.5095L199.603 34.5095L198.981 35.2926ZM202.674 39.4545V38.4545C200.87 38.4545 199.331 38.0274 198.023 37.2024L197.489 38.0483L196.956 38.8942C198.621 39.9442 200.539 40.4545 202.674 40.4545V39.4545ZM197.489 38.0483L198.025 37.204C196.714 36.372 195.678 35.2046 194.92 33.6705L194.023 34.1136L193.127 34.5568C194.035 36.3939 195.31 37.8496 196.954 38.8926L197.489 38.0483ZM194.023 34.1136L194.922 33.6745C194.177 32.1505 193.788 30.3364 193.788 28.2045H192.788H191.788C191.788 30.5803 192.222 32.7056 193.125 34.5528L194.023 34.1136ZM192.788 28.2045H193.788C193.788 26.0525 194.177 24.2236 194.923 22.69L194.023 22.2528L193.124 21.8157C192.222 23.6722 191.788 25.8111 191.788 28.2045H192.788ZM194.023 22.2528L194.921 22.694C195.68 21.1504 196.716 19.9794 198.025 19.1483L197.489 18.304L196.954 17.4596C195.309 18.5035 194.034 19.9651 193.126 21.8117L194.023 22.2528ZM197.489 18.304L198.023 19.1499C199.331 18.3249 200.87 17.8977 202.674 17.8977V16.8977V15.8977C200.539 15.8977 198.621 16.4081 196.956 17.4581L197.489 18.304ZM202.674 16.8977V17.8977C204.479 17.8977 206.011 18.3249 207.309 19.1483L207.844 18.304L208.38 17.4596C206.723 16.4081 204.809 15.8977 202.674 15.8977V16.8977ZM207.844 18.304L207.311 19.1499C208.629 19.9807 209.662 21.15 210.411 22.69L211.31 22.2528L212.21 21.8157C211.311 19.9655 210.034 18.5023 208.378 17.4581L207.844 18.304ZM211.31 22.2528L210.413 22.694C211.166 24.2267 211.56 26.0541 211.56 28.2045H212.56H213.56C213.56 25.8096 213.121 23.6691 212.208 21.8117L211.31 22.2528ZM212.56 28.2045H211.56C211.56 30.3348 211.167 32.1474 210.414 33.6705L211.31 34.1136L212.207 34.5568C213.12 32.7087 213.56 30.5819 213.56 28.2045H212.56ZM211.31 34.1136L210.412 33.6745C209.664 35.205 208.63 36.3707 207.311 37.2024L207.844 38.0483L208.378 38.8942C210.032 37.8509 211.309 36.3935 212.209 34.5528L211.31 34.1136ZM207.844 38.0483L207.309 37.204C206.011 38.0274 204.479 38.4545 202.674 38.4545V39.4545V40.4545C204.809 40.4545 206.723 39.9442 208.38 38.8926L207.844 38.0483ZM202.674 36.4432V37.4432C204.346 37.4432 205.811 37.0113 206.989 36.0757L206.367 35.2926L205.745 34.5095C204.992 35.1081 203.994 35.4432 202.674 35.4432V36.4432ZM206.367 35.2926L206.989 36.0757C208.109 35.186 208.927 34.0218 209.45 32.6151L208.512 32.267L207.575 31.919C207.169 33.0123 206.557 33.8651 205.745 34.5095L206.367 35.2926ZM208.512 32.267L209.45 32.6151C209.959 31.2437 210.208 29.7705 210.208 28.2045H209.208H208.208C208.208 29.5552 207.994 30.7904 207.575 31.919L208.512 32.267ZM209.208 28.2045H210.208C210.208 26.6385 209.959 25.1615 209.45 23.7821L208.512 24.1278L207.574 24.4735C207.994 25.6131 208.208 26.854 208.208 28.2045H209.208ZM208.512 24.1278L209.45 23.7821C208.929 22.3671 208.113 21.194 206.994 20.2945L206.367 21.0739L205.741 21.8532C206.554 22.5068 207.167 23.3696 207.574 24.4735L208.512 24.1278ZM206.367 21.0739L206.994 20.2945C205.816 19.3473 204.349 18.9091 202.674 18.9091V19.9091V20.9091C203.991 20.9091 204.987 21.2474 205.741 21.8532L206.367 21.0739ZM202.674 19.9091V18.9091C200.999 18.9091 199.532 19.3473 198.354 20.2945L198.981 21.0739L199.607 21.8532C200.361 21.2474 201.357 20.9091 202.674 20.9091V19.9091ZM198.981 21.0739L198.354 20.2945C197.235 21.194 196.419 22.3671 195.898 23.7821L196.836 24.1278L197.774 24.4735C198.181 23.3696 198.794 22.5068 199.607 21.8532L198.981 21.0739ZM196.836 24.1278L195.898 23.7821C195.389 25.1615 195.14 26.6385 195.14 28.2045H196.14H197.14C197.14 26.854 197.354 25.6131 197.774 24.4735L196.836 24.1278ZM196.14 28.2045H195.14C195.14 29.7705 195.389 31.2437 195.898 32.6151L196.836 32.267L197.773 31.919C197.354 30.7904 197.14 29.5552 197.14 28.2045H196.14ZM196.836 32.267L195.898 32.6151C196.421 34.0218 197.239 35.186 198.359 36.0757L198.981 35.2926L199.603 34.5095C198.791 33.8651 198.179 33.0123 197.773 31.919L196.836 32.267ZM198.981 35.2926L198.359 36.0757C199.537 37.0113 201.002 37.4432 202.674 37.4432V36.4432V35.4432C201.354 35.4432 200.356 35.1081 199.603 34.5095L198.981 35.2926Z" fill="black" mask="url(#path-1-outside-1_4_14)"/>
<g clip-path="url(#clip0_4_14)">
<path d="M26.0506 11.1668L50.797 42.3633L53.0001 40.4119L27.5272 8.29947C27.1452 7.81867 26.5912 7.5499 26.0192 7.55164C25.4417 7.55724 24.897 7.84082 24.5247 8.32872L0 40.4345L2.23702 42.342L26.0506 11.1668Z" fill="black"/>
<path d="M25.689 14.011L7.1084 38.3351L10.7808 60.4486H40.3699L45.7728 38.3351L26.4716 14.0037C26.2528 13.7275 25.9036 13.7312 25.689 14.011ZM19.655 31.0578C21.3145 30.1425 23.6526 31.4124 24.8768 33.8932C26.1005 36.3725 25.7484 39.1248 24.0892 40.0392C22.4298 40.9547 20.0925 39.6846 18.8682 37.2041C17.6429 34.7241 17.9966 31.9722 19.655 31.0578ZM13.5783 43.7537C12.3546 41.2738 12.7071 38.5215 14.3645 37.6071C16.0237 36.692 18.3627 37.9617 19.5864 40.4428C20.8098 42.9221 20.4577 45.6743 18.8002 46.5887C17.141 47.5032 14.8028 46.2337 13.5783 43.7537ZM38.6346 37.6071C40.2938 38.5216 40.6467 41.2731 39.4217 43.7537C38.1971 46.2335 35.8601 47.5032 34.2009 46.5887C32.5412 45.6742 32.1883 42.9221 33.414 40.4428C34.6379 37.9617 36.9754 36.692 38.6346 37.6071ZM28.1248 33.8932C29.3483 31.4133 31.6876 30.1434 33.3456 31.0578C35.0042 31.9722 35.3571 34.7242 34.1327 37.2041C32.9092 39.684 30.57 40.9536 28.9108 40.0392C27.2534 39.1247 26.8996 36.3725 28.1248 33.8932ZM32.2685 46.9148C32.2685 47.2332 32.2377 47.5428 32.1844 47.8447C33.8 48.0312 34.4464 50.108 34.4464 51.8653C34.4464 53.7469 33.0034 55.2739 31.221 55.2739C29.6256 55.2739 28.7103 55.0703 26.7977 54.015C26.4266 54.1138 23.9854 55.2739 22.374 55.2739C20.5928 55.2739 19.149 53.7468 19.149 51.8653C19.149 50.0417 19.8931 47.9157 21.5977 47.8245C21.5462 47.5293 21.5148 47.2261 21.5148 46.9148C21.5148 44.136 24.2618 41.2335 26.8918 41.2335C29.5219 41.2335 32.2685 44.136 32.2685 46.9148Z" fill="#2563EB"/>
</g>
<path d="M66.3153 50.9091C66.2599 50.4413 66.0353 50.0781 65.6413 49.8196C65.2474 49.5611 64.7642 49.4318 64.1918 49.4318C63.7732 49.4318 63.407 49.4995 63.093 49.6349C62.7822 49.7704 62.5391 49.9566 62.3636 50.1935C62.1913 50.4305 62.1051 50.6998 62.1051 51.0014C62.1051 51.2538 62.1651 51.4708 62.2852 51.6523C62.4083 51.8308 62.5652 51.9801 62.756 52.1001C62.9469 52.2171 63.1469 52.314 63.3562 52.391C63.5655 52.4648 63.7578 52.5249 63.9332 52.571L64.8935 52.8295C65.1397 52.8942 65.4136 52.9834 65.7152 53.0973C66.0199 53.2112 66.3107 53.3666 66.5877 53.5636C66.8678 53.7575 67.0986 54.0067 67.2802 54.3114C67.4618 54.6161 67.5526 54.9901 67.5526 55.4332C67.5526 55.9441 67.4187 56.4058 67.1509 56.8182C66.8862 57.2306 66.4985 57.5584 65.9876 57.8015C65.4798 58.0446 64.8627 58.1662 64.1364 58.1662C63.4593 58.1662 62.873 58.0569 62.3775 57.8384C61.8851 57.6199 61.4973 57.3152 61.2141 56.9244C60.9341 56.5335 60.7756 56.0795 60.7386 55.5625H61.9205C61.9512 55.9195 62.0713 56.215 62.2805 56.4489C62.4929 56.6797 62.7607 56.852 63.0838 56.9659C63.41 57.0767 63.7609 57.1321 64.1364 57.1321C64.5734 57.1321 64.9658 57.0613 65.3136 56.9197C65.6613 56.7751 65.9368 56.575 66.1399 56.3196C66.343 56.0611 66.4446 55.7595 66.4446 55.4148C66.4446 55.1009 66.3569 54.8454 66.1815 54.6484C66.006 54.4515 65.7752 54.2914 65.489 54.1683C65.2028 54.0452 64.8935 53.9375 64.5611 53.8452L63.3977 53.5128C62.6591 53.3004 62.0743 52.9973 61.6435 52.6033C61.2126 52.2094 60.9972 51.6939 60.9972 51.0568C60.9972 50.5275 61.1403 50.0658 61.4265 49.6719C61.7158 49.2749 62.1036 48.9671 62.5898 48.7486C63.0792 48.527 63.6255 48.4162 64.2287 48.4162C64.8381 48.4162 65.3797 48.5254 65.8537 48.744C66.3277 48.9594 66.7031 49.2549 66.9801 49.6303C67.2602 50.0058 67.4079 50.4321 67.4233 50.9091H66.3153ZM69.2872 58V50.9091H70.3398V52.017H70.4321C70.5798 51.6385 70.8183 51.3446 71.1476 51.1353C71.4769 50.9229 71.8724 50.8168 72.3341 50.8168C72.8019 50.8168 73.1912 50.9229 73.502 51.1353C73.816 51.3446 74.0606 51.6385 74.2361 52.017H74.3099C74.4915 51.6508 74.7639 51.36 75.127 51.1445C75.4902 50.926 75.9257 50.8168 76.4335 50.8168C77.0675 50.8168 77.5861 51.0153 77.9893 51.4123C78.3924 51.8062 78.594 52.4202 78.594 53.2543V58H77.5045V53.2543C77.5045 52.7311 77.3614 52.3571 77.0752 52.1325C76.789 51.9078 76.452 51.7955 76.0642 51.7955C75.5656 51.7955 75.1794 51.9463 74.9055 52.2479C74.6315 52.5464 74.4946 52.925 74.4946 53.3835V58H73.3866V53.1435C73.3866 52.7403 73.2558 52.4156 72.9942 52.1694C72.7326 51.9201 72.3956 51.7955 71.9832 51.7955C71.7001 51.7955 71.4354 51.8709 71.1892 52.0217C70.9461 52.1725 70.7491 52.3817 70.5983 52.6495C70.4506 52.9142 70.3767 53.2204 70.3767 53.5682V58H69.2872ZM82.6727 58.1662C82.2233 58.1662 81.8155 58.0816 81.4493 57.9123C81.0831 57.7399 80.7922 57.4922 80.5768 57.169C80.3614 56.8428 80.2536 56.4489 80.2536 55.9872C80.2536 55.581 80.3337 55.2517 80.4937 54.9993C80.6537 54.7438 80.8676 54.5438 81.1354 54.3991C81.4031 54.2545 81.6986 54.1468 82.0218 54.076C82.348 54.0021 82.6758 53.9437 83.0051 53.9006C83.4359 53.8452 83.7852 53.8036 84.053 53.7759C84.3238 53.7451 84.5208 53.6944 84.6439 53.6236C84.7701 53.5528 84.8332 53.4297 84.8332 53.2543V53.2173C84.8332 52.7618 84.7085 52.4079 84.4593 52.1555C84.213 51.9032 83.8391 51.777 83.3374 51.777C82.8173 51.777 82.4095 51.8909 82.1141 52.1186C81.8186 52.3464 81.6109 52.5895 81.4909 52.848L80.4568 52.4787C80.6414 52.0478 80.8876 51.7124 81.1954 51.4723C81.5062 51.2292 81.8448 51.0599 82.211 50.9645C82.5803 50.866 82.9435 50.8168 83.3005 50.8168C83.5283 50.8168 83.7899 50.8445 84.0853 50.8999C84.3838 50.9522 84.6716 51.0614 84.9486 51.2276C85.2287 51.3938 85.461 51.6446 85.6457 51.9801C85.8303 52.3156 85.9227 52.7649 85.9227 53.3281V58H84.8332V57.0398H84.7778C84.7039 57.1937 84.5808 57.3583 84.4085 57.5337C84.2361 57.7092 84.0068 57.8584 83.7206 57.9815C83.4344 58.1046 83.0851 58.1662 82.6727 58.1662ZM82.8389 57.1875C83.2697 57.1875 83.6329 57.1029 83.9284 56.9336C84.2269 56.7643 84.4516 56.5458 84.6024 56.2781C84.7562 56.0103 84.8332 55.7287 84.8332 55.4332V54.4361C84.787 54.4915 84.6855 54.5423 84.5285 54.5884C84.3746 54.6315 84.1961 54.67 83.993 54.7038C83.7929 54.7346 83.5975 54.7623 83.4067 54.7869C83.219 54.8085 83.0666 54.8269 82.9497 54.8423C82.6665 54.8793 82.4018 54.9393 82.1556 55.0224C81.9125 55.1024 81.7155 55.224 81.5647 55.3871C81.417 55.5471 81.3431 55.7656 81.3431 56.0426C81.3431 56.4212 81.4832 56.7074 81.7632 56.9013C82.0464 57.0921 82.4049 57.1875 82.8389 57.1875ZM87.9112 58V50.9091H88.9638V51.9801H89.0376C89.1669 51.6293 89.4008 51.3446 89.7393 51.1261C90.0779 50.9076 90.4595 50.7983 90.8842 50.7983C90.9643 50.7983 91.0643 50.7998 91.1843 50.8029C91.3043 50.806 91.3951 50.8106 91.4567 50.8168V51.9247C91.4197 51.9155 91.3351 51.9016 91.2028 51.8832C91.0735 51.8616 90.9366 51.8509 90.7919 51.8509C90.4472 51.8509 90.1394 51.9232 89.8686 52.0678C89.6009 52.2094 89.3885 52.4064 89.2315 52.6587C89.0777 52.908 89.0007 53.1927 89.0007 53.5128V58H87.9112ZM96.2763 50.9091V51.8324H92.6016V50.9091H96.2763ZM93.6726 49.2102H94.7621V55.9688C94.7621 56.2765 94.8067 56.5073 94.896 56.6612C94.9883 56.812 95.1052 56.9136 95.2468 56.9659C95.3915 57.0152 95.5438 57.0398 95.7038 57.0398C95.8239 57.0398 95.9223 57.0336 95.9993 57.0213C96.0762 57.0059 96.1378 56.9936 96.1839 56.9844L96.4055 57.9631C96.3317 57.9908 96.2286 58.0185 96.0962 58.0462C95.9639 58.0769 95.7962 58.0923 95.593 58.0923C95.2853 58.0923 94.9837 58.0262 94.6882 57.8938C94.3958 57.7615 94.1527 57.5599 93.9588 57.2891C93.768 57.0182 93.6726 56.6766 93.6726 56.2642V49.2102ZM109.327 51.5H108.182C108.114 51.1707 107.996 50.8814 107.827 50.6321C107.661 50.3828 107.457 50.1735 107.217 50.0043C106.98 49.8319 106.717 49.7027 106.428 49.6165C106.139 49.5303 105.837 49.4872 105.523 49.4872C104.951 49.4872 104.432 49.6319 103.967 49.9212C103.506 50.2105 103.138 50.6367 102.864 51.1999C102.593 51.7631 102.458 52.4541 102.458 53.2727C102.458 54.0914 102.593 54.7823 102.864 55.3455C103.138 55.9087 103.506 56.335 103.967 56.6243C104.432 56.9136 104.951 57.0582 105.523 57.0582C105.837 57.0582 106.139 57.0152 106.428 56.929C106.717 56.8428 106.98 56.7151 107.217 56.5458C107.457 56.3735 107.661 56.1626 107.827 55.9134C107.996 55.661 108.114 55.3717 108.182 55.0455H109.327C109.241 55.5286 109.084 55.9611 108.856 56.3427C108.628 56.7243 108.345 57.049 108.007 57.3168C107.668 57.5814 107.288 57.783 106.866 57.9215C106.448 58.06 106 58.1293 105.523 58.1293C104.717 58.1293 104 57.9323 103.372 57.5384C102.744 57.1444 102.25 56.5843 101.89 55.858C101.53 55.1316 101.35 54.2699 101.35 53.2727C101.35 52.2756 101.53 51.4138 101.89 50.6875C102.25 49.9612 102.744 49.401 103.372 49.0071C104 48.6132 104.717 48.4162 105.523 48.4162C106 48.4162 106.448 48.4854 106.866 48.6239C107.288 48.7624 107.668 48.9656 108.007 49.2333C108.345 49.498 108.628 49.8211 108.856 50.2028C109.084 50.5813 109.241 51.0137 109.327 51.5ZM113.116 58.1662C112.667 58.1662 112.259 58.0816 111.893 57.9123C111.526 57.7399 111.236 57.4922 111.02 57.169C110.805 56.8428 110.697 56.4489 110.697 55.9872C110.697 55.581 110.777 55.2517 110.937 54.9993C111.097 54.7438 111.311 54.5438 111.579 54.3991C111.847 54.2545 112.142 54.1468 112.465 54.076C112.791 54.0021 113.119 53.9437 113.448 53.9006C113.879 53.8452 114.229 53.8036 114.496 53.7759C114.767 53.7451 114.964 53.6944 115.087 53.6236C115.213 53.5528 115.277 53.4297 115.277 53.2543V53.2173C115.277 52.7618 115.152 52.4079 114.903 52.1555C114.656 51.9032 114.282 51.777 113.781 51.777C113.261 51.777 112.853 51.8909 112.557 52.1186C112.262 52.3464 112.054 52.5895 111.934 52.848L110.9 52.4787C111.085 52.0478 111.331 51.7124 111.639 51.4723C111.95 51.2292 112.288 51.0599 112.654 50.9645C113.024 50.866 113.387 50.8168 113.744 50.8168C113.972 50.8168 114.233 50.8445 114.529 50.8999C114.827 50.9522 115.115 51.0614 115.392 51.2276C115.672 51.3938 115.904 51.6446 116.089 51.9801C116.274 52.3156 116.366 52.7649 116.366 53.3281V58H115.277V57.0398H115.221C115.147 57.1937 115.024 57.3583 114.852 57.5337C114.679 57.7092 114.45 57.8584 114.164 57.9815C113.878 58.1046 113.528 58.1662 113.116 58.1662ZM113.282 57.1875C113.713 57.1875 114.076 57.1029 114.372 56.9336C114.67 56.7643 114.895 56.5458 115.046 56.2781C115.2 56.0103 115.277 55.7287 115.277 55.4332V54.4361C115.23 54.4915 115.129 54.5423 114.972 54.5884C114.818 54.6315 114.639 54.67 114.436 54.7038C114.236 54.7346 114.041 54.7623 113.85 54.7869C113.662 54.8085 113.51 54.8269 113.393 54.8423C113.11 54.8793 112.845 54.9393 112.599 55.0224C112.356 55.1024 112.159 55.224 112.008 55.3871C111.86 55.5471 111.786 55.7656 111.786 56.0426C111.786 56.4212 111.927 56.7074 112.207 56.9013C112.49 57.0921 112.848 57.1875 113.282 57.1875ZM118.355 58V50.9091H119.407V51.9801H119.481C119.61 51.6293 119.844 51.3446 120.183 51.1261C120.521 50.9076 120.903 50.7983 121.328 50.7983C121.408 50.7983 121.508 50.7998 121.628 50.8029C121.748 50.806 121.838 50.8106 121.9 50.8168V51.9247C121.863 51.9155 121.778 51.9016 121.646 51.8832C121.517 51.8616 121.38 51.8509 121.235 51.8509C120.891 51.8509 120.583 51.9232 120.312 52.0678C120.044 52.2094 119.832 52.4064 119.675 52.6587C119.521 52.908 119.444 53.1927 119.444 53.5128V58H118.355ZM125.949 58.1477C125.265 58.1477 124.676 57.9969 124.181 57.6953C123.688 57.3906 123.308 56.9659 123.04 56.4212C122.776 55.8733 122.643 55.2363 122.643 54.5099C122.643 53.7836 122.776 53.1435 123.04 52.5895C123.308 52.0324 123.68 51.5985 124.157 51.2876C124.638 50.9737 125.198 50.8168 125.838 50.8168C126.207 50.8168 126.572 50.8783 126.932 51.0014C127.292 51.1245 127.62 51.3246 127.915 51.6016C128.211 51.8755 128.446 52.2386 128.622 52.6911C128.797 53.1435 128.885 53.7005 128.885 54.3622V54.8239H123.419V53.8821H127.777C127.777 53.482 127.697 53.125 127.537 52.8111C127.38 52.4972 127.155 52.2494 126.863 52.0678C126.573 51.8862 126.232 51.7955 125.838 51.7955C125.404 51.7955 125.028 51.9032 124.711 52.1186C124.398 52.331 124.156 52.608 123.987 52.9496C123.817 53.2912 123.733 53.6574 123.733 54.0483V54.6761C123.733 55.2116 123.825 55.6656 124.01 56.038C124.198 56.4073 124.458 56.6889 124.79 56.8828C125.122 57.0736 125.509 57.169 125.949 57.169C126.235 57.169 126.493 57.129 126.724 57.049C126.958 56.9659 127.16 56.8428 127.329 56.6797C127.498 56.5135 127.629 56.3073 127.721 56.0611L128.774 56.3565C128.663 56.7135 128.477 57.0275 128.215 57.2983C127.954 57.5661 127.631 57.7753 127.246 57.9261C126.861 58.0739 126.429 58.1477 125.949 58.1477ZM131.336 58.0739C131.108 58.0739 130.913 57.9923 130.75 57.8292C130.587 57.6661 130.505 57.4706 130.505 57.2429C130.505 57.0152 130.587 56.8197 130.75 56.6566C130.913 56.4935 131.108 56.4119 131.336 56.4119C131.564 56.4119 131.759 56.4935 131.922 56.6566C132.086 56.8197 132.167 57.0152 132.167 57.2429C132.167 57.3937 132.129 57.5322 132.052 57.6584C131.978 57.7846 131.878 57.8861 131.752 57.9631C131.628 58.0369 131.49 58.0739 131.336 58.0739ZM137.926 58V48.5455H139.071V52.7557H144.112V48.5455H145.257V58H144.112V53.7713H139.071V58H137.926ZM149.488 58.1662C149.039 58.1662 148.631 58.0816 148.265 57.9123C147.898 57.7399 147.608 57.4922 147.392 57.169C147.177 56.8428 147.069 56.4489 147.069 55.9872C147.069 55.581 147.149 55.2517 147.309 54.9993C147.469 54.7438 147.683 54.5438 147.951 54.3991C148.219 54.2545 148.514 54.1468 148.837 54.076C149.163 54.0021 149.491 53.9437 149.82 53.9006C150.251 53.8452 150.601 53.8036 150.868 53.7759C151.139 53.7451 151.336 53.6944 151.459 53.6236C151.586 53.5528 151.649 53.4297 151.649 53.2543V53.2173C151.649 52.7618 151.524 52.4079 151.275 52.1555C151.028 51.9032 150.655 51.777 150.153 51.777C149.633 51.777 149.225 51.8909 148.93 52.1186C148.634 52.3464 148.426 52.5895 148.306 52.848L147.272 52.4787C147.457 52.0478 147.703 51.7124 148.011 51.4723C148.322 51.2292 148.66 51.0599 149.026 50.9645C149.396 50.866 149.759 50.8168 150.116 50.8168C150.344 50.8168 150.605 50.8445 150.901 50.8999C151.199 50.9522 151.487 51.0614 151.764 51.2276C152.044 51.3938 152.276 51.6446 152.461 51.9801C152.646 52.3156 152.738 52.7649 152.738 53.3281V58H151.649V57.0398H151.593C151.519 57.1937 151.396 57.3583 151.224 57.5337C151.052 57.7092 150.822 57.8584 150.536 57.9815C150.25 58.1046 149.901 58.1662 149.488 58.1662ZM149.654 57.1875C150.085 57.1875 150.448 57.1029 150.744 56.9336C151.042 56.7643 151.267 56.5458 151.418 56.2781C151.572 56.0103 151.649 55.7287 151.649 55.4332V54.4361C151.602 54.4915 151.501 54.5423 151.344 54.5884C151.19 54.6315 151.012 54.67 150.808 54.7038C150.608 54.7346 150.413 54.7623 150.222 54.7869C150.034 54.8085 149.882 54.8269 149.765 54.8423C149.482 54.8793 149.217 54.9393 148.971 55.0224C148.728 55.1024 148.531 55.224 148.38 55.3871C148.232 55.5471 148.159 55.7656 148.159 56.0426C148.159 56.4212 148.299 56.7074 148.579 56.9013C148.862 57.0921 149.22 57.1875 149.654 57.1875ZM154.727 60.6591V50.9091H155.779V52.0355H155.908C155.988 51.9124 156.099 51.7554 156.241 51.5646C156.386 51.3707 156.592 51.1984 156.859 51.0476C157.13 50.8937 157.497 50.8168 157.958 50.8168C158.555 50.8168 159.082 50.966 159.537 51.2646C159.993 51.5631 160.348 51.9863 160.603 52.5341C160.859 53.0819 160.987 53.7282 160.987 54.473C160.987 55.224 160.859 55.8749 160.603 56.4258C160.348 56.9736 159.994 57.3983 159.542 57.6999C159.089 57.9985 158.568 58.1477 157.977 58.1477C157.521 58.1477 157.156 58.0723 156.883 57.9215C156.609 57.7676 156.398 57.5937 156.25 57.3999C156.102 57.2029 155.988 57.0398 155.908 56.9105H155.816V60.6591H154.727ZM155.798 54.4545C155.798 54.9901 155.876 55.4625 156.033 55.8718C156.19 56.2781 156.419 56.5966 156.721 56.8274C157.023 57.0552 157.392 57.169 157.829 57.169C158.284 57.169 158.665 57.049 158.969 56.8089C159.277 56.5658 159.508 56.2396 159.662 55.8303C159.819 55.4179 159.897 54.9593 159.897 54.4545C159.897 53.956 159.82 53.5066 159.666 53.1065C159.515 52.7034 159.286 52.3848 158.978 52.1509C158.674 51.9139 158.291 51.7955 157.829 51.7955C157.386 51.7955 157.013 51.9078 156.712 52.1325C156.41 52.354 156.182 52.6649 156.028 53.065C155.875 53.462 155.798 53.9252 155.798 54.4545ZM162.649 60.6591V50.9091H163.701V52.0355H163.83C163.91 51.9124 164.021 51.7554 164.163 51.5646C164.307 51.3707 164.514 51.1984 164.781 51.0476C165.052 50.8937 165.418 50.8168 165.88 50.8168C166.477 50.8168 167.003 50.966 167.459 51.2646C167.914 51.5631 168.27 51.9863 168.525 52.5341C168.781 53.0819 168.908 53.7282 168.908 54.473C168.908 55.224 168.781 55.8749 168.525 56.4258C168.27 56.9736 167.916 57.3983 167.464 57.6999C167.011 57.9985 166.489 58.1477 165.899 58.1477C165.443 58.1477 165.078 58.0723 164.804 57.9215C164.531 57.7676 164.32 57.5937 164.172 57.3999C164.024 57.2029 163.91 57.0398 163.83 56.9105H163.738V60.6591H162.649ZM163.72 54.4545C163.72 54.9901 163.798 55.4625 163.955 55.8718C164.112 56.2781 164.341 56.5966 164.643 56.8274C164.944 57.0552 165.314 57.169 165.751 57.169C166.206 57.169 166.586 57.049 166.891 56.8089C167.199 56.5658 167.43 56.2396 167.584 55.8303C167.741 55.4179 167.819 54.9593 167.819 54.4545C167.819 53.956 167.742 53.5066 167.588 53.1065C167.437 52.7034 167.208 52.3848 166.9 52.1509C166.596 51.9139 166.212 51.7955 165.751 51.7955C165.308 51.7955 164.935 51.9078 164.634 52.1325C164.332 52.354 164.104 52.6649 163.95 53.065C163.796 53.462 163.72 53.9252 163.72 54.4545ZM171.018 60.6591C170.834 60.6591 170.669 60.6437 170.524 60.6129C170.38 60.5852 170.28 60.5575 170.224 60.5298L170.501 59.5696C170.766 59.6373 171 59.6619 171.203 59.6435C171.406 59.625 171.586 59.5342 171.743 59.3711C171.903 59.2111 172.049 58.951 172.182 58.5909L172.385 58.0369L169.763 50.9091H170.944L172.902 56.5597H172.976L174.933 50.9091H176.115L173.105 59.0341C172.969 59.4003 172.802 59.7035 172.602 59.9435C172.402 60.1867 172.169 60.3667 171.905 60.4837C171.643 60.6006 171.348 60.6591 171.018 60.6591ZM180.84 49.5611V48.5455H187.931V49.5611H184.958V58H183.813V49.5611H180.84ZM190.672 58.1662C190.222 58.1662 189.815 58.0816 189.448 57.9123C189.082 57.7399 188.791 57.4922 188.576 57.169C188.36 56.8428 188.253 56.4489 188.253 55.9872C188.253 55.581 188.333 55.2517 188.493 54.9993C188.653 54.7438 188.867 54.5438 189.134 54.3991C189.402 54.2545 189.698 54.1468 190.021 54.076C190.347 54.0021 190.675 53.9437 191.004 53.9006C191.435 53.8452 191.784 53.8036 192.052 53.7759C192.323 53.7451 192.52 53.6944 192.643 53.6236C192.769 53.5528 192.832 53.4297 192.832 53.2543V53.2173C192.832 52.7618 192.708 52.4079 192.458 52.1555C192.212 51.9032 191.838 51.777 191.336 51.777C190.816 51.777 190.409 51.8909 190.113 52.1186C189.818 52.3464 189.61 52.5895 189.49 52.848L188.456 52.4787C188.64 52.0478 188.887 51.7124 189.194 51.4723C189.505 51.2292 189.844 51.0599 190.21 50.9645C190.579 50.866 190.943 50.8168 191.3 50.8168C191.527 50.8168 191.789 50.8445 192.084 50.8999C192.383 50.9522 192.671 51.0614 192.948 51.2276C193.228 51.3938 193.46 51.6446 193.645 51.9801C193.829 52.3156 193.922 52.7649 193.922 53.3281V58H192.832V57.0398H192.777C192.703 57.1937 192.58 57.3583 192.407 57.5337C192.235 57.7092 192.006 57.8584 191.72 57.9815C191.433 58.1046 191.084 58.1662 190.672 58.1662ZM190.838 57.1875C191.269 57.1875 191.632 57.1029 191.927 56.9336C192.226 56.7643 192.451 56.5458 192.601 56.2781C192.755 56.0103 192.832 55.7287 192.832 55.4332V54.4361C192.786 54.4915 192.684 54.5423 192.528 54.5884C192.374 54.6315 192.195 54.67 191.992 54.7038C191.792 54.7346 191.597 54.7623 191.406 54.7869C191.218 54.8085 191.066 54.8269 190.949 54.8423C190.666 54.8793 190.401 54.9393 190.155 55.0224C189.912 55.1024 189.715 55.224 189.564 55.3871C189.416 55.5471 189.342 55.7656 189.342 56.0426C189.342 56.4212 189.482 56.7074 189.762 56.9013C190.045 57.0921 190.404 57.1875 190.838 57.1875ZM195.91 58V50.9091H197V58H195.91ZM196.464 49.7273C196.252 49.7273 196.069 49.6549 195.915 49.5103C195.764 49.3656 195.689 49.1918 195.689 48.9886C195.689 48.7855 195.764 48.6116 195.915 48.467C196.069 48.3223 196.252 48.25 196.464 48.25C196.677 48.25 196.858 48.3223 197.009 48.467C197.163 48.6116 197.24 48.7855 197.24 48.9886C197.24 49.1918 197.163 49.3656 197.009 49.5103C196.858 49.6549 196.677 49.7273 196.464 49.7273ZM200.085 48.5455V58H198.995V48.5455H200.085ZM207.103 52.4972L206.124 52.7741C206.063 52.611 205.972 52.4525 205.852 52.2987C205.735 52.1417 205.575 52.0124 205.372 51.9109C205.169 51.8093 204.909 51.7585 204.592 51.7585C204.158 51.7585 203.796 51.8585 203.507 52.0586C203.22 52.2556 203.077 52.5064 203.077 52.8111C203.077 53.0819 203.176 53.2958 203.373 53.4528C203.57 53.6097 203.878 53.7405 204.296 53.8452L205.349 54.1037C205.983 54.2576 206.455 54.493 206.766 54.81C207.077 55.1239 207.232 55.5286 207.232 56.0241C207.232 56.4304 207.115 56.7936 206.881 57.1136C206.65 57.4337 206.327 57.6861 205.912 57.8707C205.496 58.0554 205.013 58.1477 204.462 58.1477C203.739 58.1477 203.14 57.9908 202.666 57.6768C202.193 57.3629 201.892 56.9044 201.766 56.3011L202.8 56.0426C202.899 56.4242 203.085 56.7105 203.359 56.9013C203.636 57.0921 203.998 57.1875 204.444 57.1875C204.952 57.1875 205.355 57.0798 205.653 56.8643C205.955 56.6458 206.106 56.3842 206.106 56.0795C206.106 55.8333 206.02 55.6271 205.847 55.4609C205.675 55.2917 205.41 55.1655 205.053 55.0824L203.871 54.8054C203.222 54.6515 202.745 54.413 202.44 54.0898C202.139 53.7636 201.988 53.3558 201.988 52.8665C201.988 52.4664 202.1 52.1125 202.325 51.8047C202.553 51.4969 202.862 51.2553 203.253 51.0799C203.647 50.9045 204.093 50.8168 204.592 50.8168C205.293 50.8168 205.844 50.9706 206.244 51.2784C206.647 51.5862 206.934 51.9924 207.103 52.4972ZM209.666 58.0739C209.438 58.0739 209.243 57.9923 209.08 57.8292C208.917 57.6661 208.835 57.4706 208.835 57.2429C208.835 57.0152 208.917 56.8197 209.08 56.6566C209.243 56.4935 209.438 56.4119 209.666 56.4119C209.894 56.4119 210.089 56.4935 210.252 56.6566C210.416 56.8197 210.497 57.0152 210.497 57.2429C210.497 57.3937 210.459 57.5322 210.382 57.6584C210.308 57.7846 210.208 57.8861 210.082 57.9631C209.959 58.0369 209.82 58.0739 209.666 58.0739Z" fill="#2563EB"/>
<defs>
<clipPath id="clip0_4_14">
<rect width="53" height="56" fill="white" transform="translate(0 6)"/>
</clipPath>
</defs>
</svg>
