<svg width="244" height="69" viewBox="0 0 244 69" fill="none" xmlns="http://www.w3.org/2000/svg">
<g clip-path="url(#clip0_14_47)">
<path d="M52.7631 68.7724C52.555 68.5234 53.089 62.5049 54.4529 49.7298C55.2277 42.4721 55.181 42.6533 56.1449 43.1655C56.5617 43.3871 54.3246 68.1974 53.835 68.7826C53.5894 69.0764 53.0126 69.0711 52.7632 68.7727L52.7631 68.7724ZM13.3577 68.5093C13.1329 68.2404 11.7918 45.9406 11.9722 45.4688C12.1271 45.0642 12.8719 44.9756 13.1654 45.3268C13.4993 45.7262 14.6854 68.1344 14.3914 68.4867C14.1642 68.7585 13.5769 68.771 13.3577 68.5086V68.5093ZM22.8542 68.2387C18.089 68.0538 15.415 67.6997 16.8606 67.4448C21.5017 66.6265 51.5319 66.8217 50.6822 67.6647C50.0894 68.2533 32.5555 68.615 22.8541 68.2387H22.8542ZM8.6119 65.2872C6.65655 63.7136 6.28393 62.9775 7.31302 62.7211C7.72603 62.6181 8.07701 62.848 10.325 64.6935C11.3658 65.548 11.586 65.9947 11.1701 66.4077C10.761 66.814 10.2081 66.5717 8.6119 65.2872ZM26.1234 65.5717C25.6944 65.4095 25.6713 65.1474 25.6689 60.4212C25.6664 55.2239 25.7768 54.2398 26.5756 52.343C29.5457 45.2901 38.6103 45.1052 42.2279 52.0238C43.4767 54.4121 43.4827 54.4509 43.4827 60.128C43.4827 65.4262 43.4694 65.5308 42.7975 65.5308C42.1318 65.5308 42.1124 65.3941 42.1096 60.6999C42.1051 53.1568 40.6039 49.9812 36.4502 48.7284C30.3651 46.8931 27.1895 50.8089 27.1895 60.1472C27.1895 65.6923 27.1378 65.9553 26.1235 65.572L26.1234 65.5717ZM4.28732 61.8566C4.05527 61.6881 2.84589 44.6738 2.82696 41.311C2.82291 40.5912 3.4113 40.2356 3.95419 40.6298C4.35328 40.9195 5.66362 61.1708 5.31832 61.7121C5.07489 62.0946 4.68998 62.1482 4.28732 61.8559V61.8566ZM17.4881 61.9042C15.144 61.4085 16.0977 60.8333 19.4355 60.7295C22.7224 60.6273 24.5427 61.1033 23.1338 61.6965C22.447 61.9857 18.5514 62.129 17.4881 61.9042ZM46.5268 61.5047C44.0278 61.0235 45.0858 60.1982 48.2018 60.1982C50.7582 60.1982 51.9722 60.7079 50.6896 61.2426C50.1062 61.4858 47.3349 61.6603 46.5268 61.5047ZM45.9452 52.6707C44.9896 52.5008 44.5059 52.2721 44.5876 52.0289C44.8728 51.1794 51.628 51.228 51.628 52.0796C51.628 52.6212 47.8668 53.0125 45.9452 52.6707ZM16.7985 52.4747C15.8456 52.2628 15.6872 52.1743 15.8352 51.9366C16.3259 51.1482 24.676 51.2119 24.676 52.004C24.676 52.5562 18.7561 52.9099 16.7985 52.4747ZM22.7725 44.8738C20.1188 44.7725 16.0928 44.4926 15.6712 44.3801L15.2349 44.2638L15.6156 44.1702C18.496 43.462 49.9534 43.4817 52.5527 44.1934L52.9996 44.3157L52.3905 44.4168C50.2175 44.7773 28.8733 45.1066 22.7732 44.8738L22.7725 44.8738ZM7.72675 43.675C7.5066 43.5188 7.39292 43.3042 7.4222 43.1001C7.47453 42.7355 9.66078 40.9771 30.7612 24.3282C32.4475 22.9976 34.1943 21.6162 34.6427 21.2586C35.9865 20.1868 35.6623 19.997 41.9889 25.5608C61.6276 42.8328 60.277 41.5688 59.7684 42.1781C59.363 42.6632 58.7179 42.1464 47.4904 32.3415C41.1588 26.8112 35.9358 22.2864 35.884 22.2864C35.7044 22.2864 9.7523 42.8668 9.37466 43.3099C8.90127 43.8638 8.21058 44.0172 7.72903 43.6755L7.72675 43.675ZM5.48938 40.1564C3.68539 38.7632 3.34552 37.8537 4.63245 37.8635C5.76238 37.8721 8.42148 40.6596 7.75878 41.1407C7.29908 41.4745 7.0639 41.3724 5.48938 40.1564ZM19.0418 38.5164C17.0785 38.0486 17.5549 37.66 20.4503 37.3676C22.8559 37.1246 26.5793 37.5177 26.5793 38.0146C26.5793 38.6229 21.0372 38.9918 19.0418 38.5164ZM46.2227 38.6616C45.1035 38.5748 43.9738 38.3115 43.7932 38.0953C43.054 37.2109 50.9589 36.9974 52.3136 37.8652C53.1942 38.4293 49.4832 38.9145 46.2227 38.6616ZM0.593773 38.459C-0.657021 37.9887 -1.35396 38.6419 14.0186 25.8861C29.6495 12.9155 28.4254 13.8889 28.8365 14.1076C29.9801 14.7152 30.7749 13.9701 15.1059 26.9702C0.340695 39.2195 1.07465 38.6389 0.593773 38.459ZM33.4332 38.3607C31.4212 38.2046 30.4011 37.7455 31.3346 37.4161C33.2412 36.7433 39.6764 36.9729 39.6764 37.7137C39.6764 38.1966 36.098 38.5674 33.4332 38.3607ZM33.7377 29.8933C31.7257 29.7372 30.7057 29.278 31.6391 28.9487C33.5457 28.2759 39.981 28.5055 39.981 29.2463C39.981 29.7292 36.4025 30.1 33.7377 29.8933ZM32.5064 19.0982C31.8018 18.5913 30.9688 17.996 30.6554 17.7752C29.789 17.1649 29.8157 16.0885 30.6971 16.0885C31.8233 16.0885 35.0613 19.3483 34.407 19.8234C33.9893 20.1266 33.876 20.0834 32.5064 19.0982Z" fill="black"/>
</g>
<path d="M69.208 48C68.952 48 68.744 47.968 68.584 47.904C68.44 47.84 68.328 47.736 68.248 47.592L65.44 42.792C65.248 42.44 65.152 42.176 65.152 42C65.152 41.744 65.248 41.464 65.44 41.16L73.12 29.064V27.6H65.32C64.92 27.6 64.72 27.4 64.72 27V22.2C64.72 21.8 64.92 21.6 65.32 21.6H77.128C77.384 21.6 77.584 21.632 77.728 21.696C77.888 21.76 78.008 21.864 78.088 22.008L80.872 26.808C80.952 26.936 81.016 27.072 81.064 27.216C81.128 27.36 81.16 27.504 81.16 27.648C81.16 27.92 81.04 28.24 80.8 28.608L73.072 40.584V42H80.992C81.392 42 81.592 42.2 81.592 42.6V47.4C81.592 47.8 81.392 48 80.992 48H69.208ZM91.2081 48C90.8401 48 90.5201 47.864 90.2481 47.592L85.4481 42.792C85.1761 42.536 85.0401 42.216 85.0401 41.832V27.768C85.0401 27.384 85.1761 27.064 85.4481 26.808L90.2481 22.008C90.5201 21.736 90.8401 21.6 91.2081 21.6H104.048C104.448 21.6 104.648 21.8 104.648 22.2V47.4C104.648 47.8 104.448 48 104.048 48H99.0561C98.8481 48 98.6881 47.96 98.5761 47.88C98.4801 47.8 98.3681 47.704 98.2401 47.592L97.0401 46.392L95.8401 47.592C95.5841 47.864 95.2641 48 94.8801 48H91.2081ZM94.0161 42.408H95.6961C96.2081 42.408 96.5601 42.304 96.7521 42.096C96.9441 41.888 97.0401 41.52 97.0401 40.992V27.192H94.0161C93.4881 27.192 93.1281 27.296 92.9361 27.504C92.7441 27.712 92.6481 28.08 92.6481 28.608V40.992C92.6481 41.52 92.7441 41.888 92.9361 42.096C93.1281 42.304 93.4881 42.408 94.0161 42.408ZM110.839 48C110.439 48 110.239 47.8 110.239 47.4V22.2C110.239 21.8 110.439 21.6 110.839 21.6H123.679C124.047 21.6 124.367 21.736 124.639 22.008L129.439 26.808C129.711 27.064 129.847 27.384 129.847 27.768V47.4C129.847 47.8 129.647 48 129.247 48H122.839C122.439 48 122.239 47.8 122.239 47.4V28.728C122.239 27.976 121.863 27.6 121.111 27.6H117.847V47.4C117.847 47.8 117.647 48 117.247 48H110.839ZM141.458 48C141.09 48 140.77 47.864 140.498 47.592L135.698 42.792C135.426 42.536 135.29 42.216 135.29 41.832V27.768C135.29 27.384 135.426 27.064 135.698 26.808L140.498 22.008C140.77 21.736 141.09 21.6 141.458 21.6H154.298C154.698 21.6 154.898 21.8 154.898 22.2V47.4C154.898 47.8 154.698 48 154.298 48H149.306C149.098 48 148.938 47.96 148.826 47.88C148.73 47.8 148.618 47.704 148.49 47.592L147.29 46.392L146.09 47.592C145.834 47.864 145.514 48 145.13 48H141.458ZM144.266 42.408H145.946C146.458 42.408 146.81 42.304 147.002 42.096C147.194 41.888 147.29 41.52 147.29 40.992V27.192H144.266C143.738 27.192 143.378 27.296 143.186 27.504C142.994 27.712 142.898 28.08 142.898 28.608V40.992C142.898 41.52 142.994 41.888 143.186 42.096C143.378 42.304 143.738 42.408 144.266 42.408ZM166.489 48C166.121 48 165.801 47.864 165.529 47.592L160.729 42.792C160.457 42.536 160.321 42.216 160.321 41.832V22.2C160.321 21.8 160.521 21.6 160.921 21.6H167.329C167.729 21.6 167.929 21.8 167.929 22.2V42H172.321V22.2C172.321 21.8 172.521 21.6 172.921 21.6H179.329C179.729 21.6 179.929 21.8 179.929 22.2V41.832C179.929 42.216 179.793 42.536 179.521 42.792L174.721 47.592C174.465 47.864 174.145 48 173.761 48H166.489ZM185.161 47.808C184.761 47.808 184.561 47.592 184.561 47.16V39.528C184.561 39.096 184.761 38.88 185.161 38.88H192.841C193.241 38.88 193.441 39.096 193.441 39.528V47.16C193.441 47.592 193.241 47.808 192.841 47.808H185.161ZM198.824 48C198.424 48 198.224 47.8 198.224 47.4V22.2C198.224 21.8 198.424 21.6 198.824 21.6H205.208C205.608 21.6 205.808 21.8 205.808 22.2V47.4C205.808 47.8 205.608 48 205.208 48H198.824ZM198.704 19.608C198.384 19.608 198.224 19.448 198.224 19.128V16.08C198.224 15.76 198.384 15.6 198.704 15.6H205.376C205.664 15.6 205.808 15.76 205.808 16.08V19.128C205.808 19.448 205.664 19.608 205.376 19.608H198.704ZM217.396 48C217.028 48 216.708 47.864 216.436 47.592L211.636 42.792C211.364 42.536 211.228 42.216 211.228 41.832V27.768C211.228 27.384 211.364 27.064 211.636 26.808L216.436 22.008C216.708 21.736 217.028 21.6 217.396 21.6H224.668C225.052 21.6 225.372 21.736 225.628 22.008L230.428 26.808C230.7 27.064 230.836 27.384 230.836 27.768V41.832C230.836 42.216 230.7 42.536 230.428 42.792L225.628 47.592C225.372 47.864 225.052 48 224.668 48H217.396ZM220.204 42.408H221.884C222.396 42.408 222.748 42.304 222.94 42.096C223.132 41.888 223.228 41.52 223.228 40.992V28.608C223.228 28.08 223.132 27.712 222.94 27.504C222.748 27.296 222.396 27.192 221.884 27.192H220.204C219.676 27.192 219.316 27.296 219.124 27.504C218.932 27.712 218.836 28.08 218.836 28.608V40.992C218.836 41.52 218.932 41.888 219.124 42.096C219.316 42.304 219.676 42.408 220.204 42.408Z" fill="#2563EB"/>
<path d="M70.912 64C70.7787 64 70.712 63.9333 70.712 63.8V62.504C70.712 62.3813 70.752 62.3013 70.832 62.264L72.464 61.296V60.464L70.832 59.584C70.752 59.536 70.712 59.4533 70.712 59.336V56.784C70.712 56.7253 70.72 56.6773 70.736 56.64C70.7573 56.6027 70.7867 56.5707 70.824 56.544L72.528 55.296C72.5867 55.2533 72.6347 55.2267 72.672 55.216C72.7093 55.2053 72.7467 55.2 72.784 55.2H74.728C74.8613 55.2 74.928 55.2667 74.928 55.4V56.656C74.928 56.7467 74.92 56.808 74.904 56.84C74.8933 56.872 74.8667 56.8987 74.824 56.92L73.312 57.736V58.664L74.928 59.464C75.0187 59.5013 75.064 59.5813 75.064 59.704V62.16C75.064 62.2933 75.0187 62.4 74.928 62.48L73.224 63.896C73.1387 63.9653 73.032 64 72.904 64H70.912ZM76.9413 64C76.8079 64 76.7413 63.9333 76.7413 63.8V55.4C76.7413 55.2667 76.8079 55.2 76.9413 55.2H80.5813C80.7039 55.2 80.8106 55.2453 80.9013 55.336L81.8853 56.32H82.1813L83.1653 55.336C83.2559 55.2453 83.3626 55.2 83.4853 55.2H85.2213C85.3439 55.2 85.4506 55.2453 85.5413 55.336L87.1413 56.936C87.2319 57.0213 87.2773 57.128 87.2773 57.256V63.8C87.2773 63.9333 87.2106 64 87.0773 64H84.9413C84.8079 64 84.7413 63.9333 84.7413 63.8V57.536C84.7413 57.312 84.6293 57.2 84.4053 57.2H83.2773V63.8C83.2773 63.9333 83.2106 64 83.0773 64H80.9413C80.8079 64 80.7413 63.9333 80.7413 63.8V57.536C80.7413 57.312 80.6293 57.2 80.4053 57.2H79.2773V63.8C79.2773 63.9333 79.2106 64 79.0773 64H76.9413ZM91.1475 64C91.0248 64 90.9182 63.9547 90.8275 63.864L89.2275 62.264C89.1368 62.1787 89.0915 62.072 89.0915 61.944V57.256C89.0915 57.128 89.1368 57.0213 89.2275 56.936L90.8275 55.336C90.9182 55.2453 91.0248 55.2 91.1475 55.2H95.4275C95.5608 55.2 95.6275 55.2667 95.6275 55.4V63.8C95.6275 63.9333 95.5608 64 95.4275 64H93.7635C93.6942 64 93.6408 63.9867 93.6035 63.96C93.5715 63.9333 93.5342 63.9013 93.4915 63.864L93.0915 63.464L92.6915 63.864C92.6062 63.9547 92.4995 64 92.3715 64H91.1475ZM92.0835 62.136H92.6435C92.8142 62.136 92.9315 62.1013 92.9955 62.032C93.0595 61.9627 93.0915 61.84 93.0915 61.664V57.064H92.0835C91.9075 57.064 91.7875 57.0987 91.7235 57.168C91.6595 57.2373 91.6275 57.36 91.6275 57.536V61.664C91.6275 61.84 91.6595 61.9627 91.7235 62.032C91.7875 62.1013 91.9075 62.136 92.0835 62.136ZM97.6913 64C97.5579 64 97.4913 63.9333 97.4913 63.8V55.4C97.4913 55.2667 97.5579 55.2 97.6913 55.2H98.9073C99.0086 55.2 99.0966 55.2453 99.1713 55.336L99.9553 56.24L100.827 55.296C100.886 55.232 100.961 55.2 101.051 55.2H101.915C102.049 55.2 102.115 55.2667 102.115 55.4V57.12C102.115 57.2053 102.11 57.264 102.099 57.296C102.089 57.3227 102.059 57.352 102.011 57.384L100.027 58.848V63.8C100.027 63.9333 99.9606 64 99.8273 64H97.6913ZM104.909 64C104.787 64 104.68 63.9547 104.589 63.864L103.253 62.536C103.168 62.4453 103.125 62.3387 103.125 62.216V57.064H102.789C102.656 57.064 102.589 56.9973 102.589 56.864V55.4C102.589 55.2667 102.656 55.2 102.789 55.2H103.125V54.2C103.125 54.0667 103.192 54 103.325 54H105.453C105.587 54 105.653 54.0667 105.653 54.2V55.2H106.429C106.563 55.2 106.629 55.2667 106.629 55.4V56.864C106.629 56.9973 106.563 57.064 106.429 57.064H105.653V61.336C105.653 61.4373 105.685 61.52 105.749 61.584L106.533 62.376C106.587 62.424 106.613 62.504 106.613 62.616V63.8C106.613 63.9333 106.547 64 106.413 64H104.909ZM113.216 64C113.11 64 113.003 63.9653 112.896 63.896L111.592 63.016L110.696 61.576C110.659 61.5067 110.627 61.4613 110.6 61.44C110.574 61.4133 110.56 61.36 110.56 61.28V57.92C110.56 57.84 110.571 57.7867 110.592 57.76C110.614 57.7333 110.648 57.6853 110.696 57.616L111.512 56.256L112.896 55.304C112.944 55.272 112.992 55.248 113.04 55.232C113.088 55.2107 113.147 55.2 113.216 55.2H114.6C114.734 55.2 114.8 55.2667 114.8 55.4V56.896C114.8 56.9387 114.795 56.984 114.784 57.032C114.779 57.08 114.755 57.1173 114.712 57.144L113.8 57.6L113.096 58.52V60.656L113.84 61.504L114.712 62.056C114.766 62.088 114.792 62.128 114.792 62.176C114.798 62.2187 114.8 62.2613 114.8 62.304V63.8C114.8 63.9333 114.734 64 114.6 64H113.216ZM118.398 64C118.275 64 118.168 63.9547 118.078 63.864L116.478 62.264C116.387 62.1787 116.342 62.072 116.342 61.944V57.256C116.342 57.128 116.387 57.0213 116.478 56.936L118.078 55.336C118.168 55.2453 118.275 55.2 118.398 55.2H122.678C122.811 55.2 122.878 55.2667 122.878 55.4V63.8C122.878 63.9333 122.811 64 122.678 64H121.014C120.944 64 120.891 63.9867 120.854 63.96C120.822 63.9333 120.784 63.9013 120.742 63.864L120.342 63.464L119.942 63.864C119.856 63.9547 119.75 64 119.622 64H118.398ZM119.334 62.136H119.894C120.064 62.136 120.182 62.1013 120.246 62.032C120.31 61.9627 120.342 61.84 120.342 61.664V57.064H119.334C119.158 57.064 119.038 57.0987 118.974 57.168C118.91 57.2373 118.878 57.36 118.878 57.536V61.664C118.878 61.84 118.91 61.9627 118.974 62.032C119.038 62.1013 119.158 62.136 119.334 62.136ZM124.941 64C124.808 64 124.741 63.9333 124.741 63.8V55.4C124.741 55.2667 124.808 55.2 124.941 55.2H126.157C126.259 55.2 126.347 55.2453 126.421 55.336L127.205 56.24L128.077 55.296C128.136 55.232 128.211 55.2 128.301 55.2H129.165C129.299 55.2 129.365 55.2667 129.365 55.4V57.12C129.365 57.2053 129.36 57.264 129.349 57.296C129.339 57.3227 129.309 57.352 129.261 57.384L127.277 58.848V63.8C127.277 63.9333 127.211 64 127.077 64H124.941ZM133.903 64C133.85 64 133.791 63.992 133.727 63.976C133.669 63.96 133.613 63.9467 133.559 63.936L132.135 63.584L130.503 63.04C130.343 62.9867 130.263 62.832 130.263 62.576V57.256C130.263 57.128 130.309 57.0213 130.399 56.936L131.999 55.336C132.09 55.2453 132.197 55.2 132.319 55.2H134.879C135.002 55.2 135.109 55.2453 135.199 55.336L136.799 56.936C136.89 57.0213 136.935 57.128 136.935 57.256V60.536H132.639L132.583 61.6L133.719 61.976L135.759 62.12C135.85 62.136 135.895 62.1973 135.895 62.304V63.8C135.895 63.9333 135.829 64 135.695 64H133.903ZM133.583 59.28H133.735C133.997 59.28 134.205 59.1813 134.359 58.984C134.519 58.7867 134.599 58.52 134.599 58.184V58.024C134.599 57.6933 134.519 57.4293 134.359 57.232C134.205 57.0347 133.997 56.936 133.735 56.936H133.575C133.319 56.936 133.114 57.0347 132.959 57.232C132.81 57.4293 132.735 57.6933 132.735 58.024V58.184C132.735 58.52 132.81 58.7867 132.959 58.984C133.114 59.1813 133.322 59.28 133.583 59.28ZM138.681 65.44C138.537 65.44 138.465 65.368 138.465 65.224V64.104C138.465 63.9653 138.537 63.896 138.681 63.896H139.265C139.425 63.896 139.505 63.8293 139.505 63.696V63.456H138.481C138.347 63.456 138.281 63.384 138.281 63.24L138.297 61.216C138.297 61.072 138.366 61 138.505 61H141.041C141.174 61 141.241 61.072 141.241 61.216V63.664C141.241 64.2613 141.099 64.7067 140.817 65C140.534 65.2933 140.155 65.44 139.681 65.44H138.681ZM145.582 64C145.449 64 145.382 63.9333 145.382 63.8V53.536C145.382 53.4027 145.449 53.336 145.582 53.336H147.718C147.851 53.336 147.918 53.4027 147.918 53.536V55.2H149.862C149.985 55.2 150.091 55.2453 150.182 55.336L151.782 56.936C151.873 57.0213 151.918 57.128 151.918 57.256V63.8C151.918 63.9333 151.851 64 151.718 64H149.582C149.449 64 149.382 63.9333 149.382 63.8V57.536C149.382 57.312 149.27 57.2 149.046 57.2H147.918V63.8C147.918 63.9333 147.851 64 147.718 64H145.582ZM155.788 64C155.665 64 155.559 63.9547 155.468 63.864L153.868 62.264C153.777 62.1787 153.732 62.072 153.732 61.944V57.256C153.732 57.128 153.777 57.0213 153.868 56.936L155.468 55.336C155.559 55.2453 155.665 55.2 155.788 55.2H160.068C160.201 55.2 160.268 55.2667 160.268 55.4V63.8C160.268 63.9333 160.201 64 160.068 64H158.404C158.335 64 158.281 63.9867 158.244 63.96C158.212 63.9333 158.175 63.9013 158.132 63.864L157.732 63.464L157.332 63.864C157.247 63.9547 157.14 64 157.012 64H155.788ZM156.724 62.136H157.284C157.455 62.136 157.572 62.1013 157.636 62.032C157.7 61.9627 157.732 61.84 157.732 61.664V57.064H156.724C156.548 57.064 156.428 57.0987 156.364 57.168C156.3 57.2373 156.268 57.36 156.268 57.536V61.664C156.268 61.84 156.3 61.9627 156.364 62.032C156.428 62.1013 156.548 62.136 156.724 62.136ZM162.332 66.4C162.199 66.4 162.132 66.3333 162.132 66.2V55.4C162.132 55.2667 162.199 55.2 162.332 55.2H163.988C164.084 55.2 164.177 55.2453 164.268 55.336L164.668 55.736L165.068 55.336C165.153 55.2453 165.26 55.2 165.388 55.2H166.612C166.735 55.2 166.841 55.2453 166.932 55.336L168.532 56.936C168.623 57.0213 168.668 57.128 168.668 57.256V61.944C168.668 62.072 168.623 62.1787 168.532 62.264L166.932 63.864C166.841 63.9547 166.735 64 166.612 64H165.388C165.26 64 165.153 63.9547 165.068 63.864L164.668 63.464V66.2C164.668 66.3333 164.601 66.4 164.468 66.4H162.332ZM164.668 62.136H165.676C165.852 62.136 165.972 62.1013 166.036 62.032C166.1 61.9627 166.132 61.84 166.132 61.664V57.536C166.132 57.36 166.1 57.2373 166.036 57.168C165.972 57.0987 165.852 57.064 165.676 57.064H165.116C164.945 57.064 164.828 57.0987 164.764 57.168C164.7 57.2373 164.668 57.36 164.668 57.536V62.136ZM170.738 66.4C170.605 66.4 170.538 66.3333 170.538 66.2V55.4C170.538 55.2667 170.605 55.2 170.738 55.2H172.394C172.49 55.2 172.583 55.2453 172.674 55.336L173.074 55.736L173.474 55.336C173.559 55.2453 173.666 55.2 173.794 55.2H175.018C175.141 55.2 175.247 55.2453 175.338 55.336L176.938 56.936C177.029 57.0213 177.074 57.128 177.074 57.256V61.944C177.074 62.072 177.029 62.1787 176.938 62.264L175.338 63.864C175.247 63.9547 175.141 64 175.018 64H173.794C173.666 64 173.559 63.9547 173.474 63.864L173.074 63.464V66.2C173.074 66.3333 173.007 66.4 172.874 66.4H170.738ZM173.074 62.136H174.082C174.258 62.136 174.378 62.1013 174.442 62.032C174.506 61.9627 174.538 61.84 174.538 61.664V57.536C174.538 57.36 174.506 57.2373 174.442 57.168C174.378 57.0987 174.258 57.064 174.082 57.064H173.522C173.351 57.064 173.234 57.0987 173.17 57.168C173.106 57.2373 173.074 57.36 173.074 57.536V62.136ZM181.248 66.664C181.115 66.664 181.048 66.5973 181.048 66.464V65.216C181.048 65.1147 181.088 65.056 181.168 65.04L182.344 64.744L183.168 64.304C183.248 64.2613 183.288 64.1787 183.288 64.056V62.744L182.544 63.44C182.454 63.5307 182.347 63.576 182.224 63.576L180.864 63.624C180.742 63.624 180.635 63.5813 180.544 63.496L179.08 62.024C178.99 61.9387 178.944 61.832 178.944 61.704V55.4C178.944 55.2667 179.011 55.2 179.144 55.2H181.28C181.414 55.2 181.48 55.2667 181.48 55.4V61.424C181.48 61.6 181.512 61.7227 181.576 61.792C181.64 61.8613 181.758 61.896 181.928 61.896H182.944V55.4C182.944 55.2667 183.011 55.2 183.144 55.2H185.28C185.414 55.2 185.48 55.2667 185.48 55.4V65.016C185.48 65.176 185.435 65.2827 185.344 65.336L184.28 66.016L182.928 66.576C182.848 66.608 182.787 66.6293 182.744 66.64C182.707 66.656 182.646 66.664 182.56 66.664H181.248ZM191.738 64C191.615 64 191.508 63.9547 191.418 63.864L190.082 62.536C189.996 62.4453 189.954 62.3387 189.954 62.216V57.064H189.618C189.484 57.064 189.418 56.9973 189.418 56.864V55.4C189.418 55.2667 189.484 55.2 189.618 55.2H189.954V54.2C189.954 54.0667 190.02 54 190.154 54H192.282C192.415 54 192.482 54.0667 192.482 54.2V55.2H193.258C193.391 55.2 193.457 55.2667 193.457 55.4V56.864C193.457 56.9973 193.391 57.064 193.258 57.064H192.482V61.336C192.482 61.4373 192.514 61.52 192.578 61.584L193.362 62.376C193.415 62.424 193.442 62.504 193.442 62.616V63.8C193.442 63.9333 193.375 64 193.242 64H191.738ZM196.898 64C196.775 64 196.668 63.9547 196.578 63.864L194.978 62.264C194.887 62.1787 194.842 62.072 194.842 61.944V57.256C194.842 57.128 194.887 57.0213 194.978 56.936L196.578 55.336C196.668 55.2453 196.775 55.2 196.898 55.2H201.178C201.311 55.2 201.378 55.2667 201.378 55.4V63.8C201.378 63.9333 201.311 64 201.178 64H199.514C199.444 64 199.391 63.9867 199.354 63.96C199.322 63.9333 199.284 63.9013 199.242 63.864L198.842 63.464L198.442 63.864C198.356 63.9547 198.25 64 198.122 64H196.898ZM197.834 62.136H198.394C198.564 62.136 198.682 62.1013 198.746 62.032C198.81 61.9627 198.842 61.84 198.842 61.664V57.064H197.834C197.658 57.064 197.538 57.0987 197.474 57.168C197.41 57.2373 197.378 57.36 197.378 57.536V61.664C197.378 61.84 197.41 61.9627 197.474 62.032C197.538 62.1013 197.658 62.136 197.834 62.136ZM203.441 64C203.308 64 203.241 63.9333 203.241 63.8V55.4C203.241 55.2667 203.308 55.2 203.441 55.2H205.569C205.703 55.2 205.769 55.2667 205.769 55.4V63.8C205.769 63.9333 205.703 64 205.569 64H203.441ZM203.401 54.536C203.295 54.536 203.241 54.4827 203.241 54.376V53.36C203.241 53.2533 203.295 53.2 203.401 53.2H205.625C205.721 53.2 205.769 53.2533 205.769 53.36V54.376C205.769 54.4827 205.721 54.536 205.625 54.536H203.401ZM207.736 64C207.603 64 207.536 63.9333 207.536 63.8V53.536C207.536 53.4027 207.603 53.336 207.736 53.336H209.872C210.005 53.336 210.072 53.4027 210.072 53.536V63.8C210.072 63.9333 210.005 64 209.872 64H207.736ZM211.787 64C211.654 64 211.587 63.9333 211.587 63.8V62.504C211.587 62.3813 211.627 62.3013 211.707 62.264L213.339 61.296V60.464L211.707 59.584C211.627 59.536 211.587 59.4533 211.587 59.336V56.784C211.587 56.7253 211.595 56.6773 211.611 56.64C211.632 56.6027 211.662 56.5707 211.699 56.544L213.403 55.296C213.462 55.2533 213.51 55.2267 213.547 55.216C213.584 55.2053 213.622 55.2 213.659 55.2H215.603C215.736 55.2 215.803 55.2667 215.803 55.4V56.656C215.803 56.7467 215.795 56.808 215.779 56.84C215.768 56.872 215.742 56.8987 215.699 56.92L214.187 57.736V58.664L215.803 59.464C215.894 59.5013 215.939 59.5813 215.939 59.704V62.16C215.939 62.2933 215.894 62.4 215.803 62.48L214.099 63.896C214.014 63.9653 213.907 64 213.779 64H211.787ZM217.496 63.936C217.363 63.936 217.296 63.864 217.296 63.72V61.176C217.296 61.032 217.363 60.96 217.496 60.96H220.056C220.19 60.96 220.256 61.032 220.256 61.176V63.72C220.256 63.864 220.19 63.936 220.056 63.936H217.496Z" fill="black"/>
<defs>
<clipPath id="clip0_14_47">
<rect width="60" height="55" fill="white" transform="translate(0 14)"/>
</clipPath>
</defs>
</svg>
