<svg width="215" height="54" viewBox="0 0 215 54" fill="none" xmlns="http://www.w3.org/2000/svg">
<path d="M62.4432 32V29.4432L74.8295 13.5341V13.3069H62.8409V10.1819H79.1477V12.8523L67.1023 28.6478V28.875H79.5455V32H62.4432Z" fill="black"/>
<path d="M91.1293 32.5114C89.7467 32.5114 88.492 32.251 87.3651 31.7302C86.2382 31.1999 85.3433 30.4375 84.6804 29.4432C84.0175 28.4394 83.6861 27.2273 83.6861 25.8069C83.6861 24.5569 83.9323 23.5436 84.4247 22.7671C84.9171 21.9811 85.5753 21.3656 86.3991 20.9205C87.223 20.4754 88.1321 20.144 89.1264 19.9262C90.1302 19.6989 91.1387 19.519 92.152 19.3864C93.4777 19.216 94.5526 19.0881 95.3764 19.0029C96.2098 18.9082 96.8158 18.7519 97.1946 18.5341C97.5829 18.3163 97.777 17.9375 97.777 17.3978V17.2841C97.777 15.8826 97.3935 14.7936 96.6264 14.0171C95.8688 13.2406 94.7183 12.8523 93.1747 12.8523C91.5743 12.8523 90.3196 13.2027 89.4105 13.9035C88.5014 14.6042 87.8622 15.3523 87.4929 16.1478L84.3111 15.0114C84.8793 13.6857 85.6368 12.6535 86.5838 11.9148C87.5402 11.1667 88.5819 10.6459 89.7088 10.3523C90.8452 10.0493 91.9626 9.89778 93.0611 9.89778C93.7618 9.89778 94.5668 9.983 95.4759 10.1535C96.3944 10.3144 97.2798 10.6506 98.1321 11.162C98.9938 11.6733 99.7088 12.4451 100.277 13.4773C100.845 14.5095 101.129 15.8921 101.129 17.625V32H97.777V29.0455H97.6065C97.3793 29.519 97.0005 30.0256 96.4702 30.5654C95.9399 31.1052 95.2344 31.5644 94.3537 31.9432C93.473 32.322 92.3982 32.5114 91.1293 32.5114ZM91.6406 29.5C92.9664 29.5 94.0838 29.2396 94.9929 28.7188C95.9115 28.198 96.6027 27.5256 97.0668 26.7018C97.5402 25.8779 97.777 25.0114 97.777 24.1023V21.0341C97.6349 21.2046 97.3224 21.3608 96.8395 21.5029C96.366 21.6355 95.8168 21.7538 95.1918 21.858C94.5762 21.9527 93.9749 22.0379 93.3878 22.1137C92.8101 22.18 92.3414 22.2368 91.9815 22.2841C91.1103 22.3978 90.2959 22.5824 89.5384 22.8381C88.7902 23.0843 88.1842 23.4584 87.7202 23.9603C87.2656 24.4527 87.0384 25.125 87.0384 25.9773C87.0384 27.1421 87.4692 28.0228 88.331 28.6194C89.2022 29.2065 90.3054 29.5 91.6406 29.5Z" fill="black"/>
<path d="M110.6 18.875V32H107.248V10.1819H110.487V13.591H110.771C111.282 12.483 112.058 11.5929 113.1 10.9205C114.142 10.2387 115.487 9.89778 117.134 9.89778C118.612 9.89778 119.904 10.2008 121.012 10.8069C122.12 11.4035 122.982 12.3125 123.597 13.5341C124.213 14.7463 124.521 16.2804 124.521 18.1364V32H121.168V18.3637C121.168 16.6497 120.723 15.3144 119.833 14.358C118.943 13.3921 117.721 12.9091 116.168 12.9091C115.098 12.9091 114.142 13.1411 113.299 13.6052C112.466 14.0692 111.808 14.7463 111.325 15.6364C110.842 16.5266 110.6 17.6061 110.6 18.875Z" fill="black"/>
<path d="M137.067 32.5114C135.684 32.5114 134.429 32.251 133.303 31.7302C132.176 31.1999 131.281 30.4375 130.618 29.4432C129.955 28.4394 129.624 27.2273 129.624 25.8069C129.624 24.5569 129.87 23.5436 130.362 22.7671C130.855 21.9811 131.513 21.3656 132.337 20.9205C133.161 20.4754 134.07 20.144 135.064 19.9262C136.068 19.6989 137.076 19.519 138.089 19.3864C139.415 19.216 140.49 19.0881 141.314 19.0029C142.147 18.9082 142.753 18.7519 143.132 18.5341C143.52 18.3163 143.714 17.9375 143.714 17.3978V17.2841C143.714 15.8826 143.331 14.7936 142.564 14.0171C141.806 13.2406 140.656 12.8523 139.112 12.8523C137.512 12.8523 136.257 13.2027 135.348 13.9035C134.439 14.6042 133.8 15.3523 133.43 16.1478L130.249 15.0114C130.817 13.6857 131.574 12.6535 132.521 11.9148C133.478 11.1667 134.519 10.6459 135.646 10.3523C136.783 10.0493 137.9 9.89778 138.999 9.89778C139.699 9.89778 140.504 9.983 141.413 10.1535C142.332 10.3144 143.217 10.6506 144.07 11.162C144.931 11.6733 145.646 12.4451 146.214 13.4773C146.783 14.5095 147.067 15.8921 147.067 17.625V32H143.714V29.0455H143.544C143.317 29.519 142.938 30.0256 142.408 30.5654C141.877 31.1052 141.172 31.5644 140.291 31.9432C139.411 32.322 138.336 32.5114 137.067 32.5114ZM137.578 29.5C138.904 29.5 140.021 29.2396 140.93 28.7188C141.849 28.198 142.54 27.5256 143.004 26.7018C143.478 25.8779 143.714 25.0114 143.714 24.1023V21.0341C143.572 21.2046 143.26 21.3608 142.777 21.5029C142.304 21.6355 141.754 21.7538 141.129 21.858C140.514 21.9527 139.912 22.0379 139.325 22.1137C138.748 22.18 138.279 22.2368 137.919 22.2841C137.048 22.3978 136.233 22.5824 135.476 22.8381C134.728 23.0843 134.122 23.4584 133.658 23.9603C133.203 24.4527 132.976 25.125 132.976 25.9773C132.976 27.1421 133.407 28.0228 134.268 28.6194C135.14 29.2065 136.243 29.5 137.578 29.5Z" fill="black"/>
<path d="M170.245 10.1819L162.177 32H158.768L150.7 10.1819H154.336L160.359 27.5682H160.586L166.609 10.1819H170.245Z" fill="black"/>
<path d="M175.746 32.2273C175.045 32.2273 174.444 31.9764 173.942 31.4745C173.44 30.9726 173.189 30.3713 173.189 29.6705C173.189 28.9697 173.44 28.3684 173.942 27.8665C174.444 27.3646 175.045 27.1137 175.746 27.1137C176.447 27.1137 177.048 27.3646 177.55 27.8665C178.052 28.3684 178.303 28.9697 178.303 29.6705C178.303 30.1345 178.184 30.5607 177.947 30.9489C177.72 31.3372 177.412 31.6497 177.024 31.8864C176.645 32.1137 176.219 32.2273 175.746 32.2273Z" fill="black"/>
<path d="M184.318 32V10.1819H187.67V32H184.318ZM186.023 6.5455C185.369 6.5455 184.806 6.32296 184.332 5.87789C183.868 5.43281 183.636 4.89778 183.636 4.27278C183.636 3.64778 183.868 3.11274 184.332 2.66766C184.806 2.22259 185.369 2.00005 186.023 2.00005C186.676 2.00005 187.235 2.22259 187.699 2.66766C188.172 3.11274 188.409 3.64778 188.409 4.27278C188.409 4.89778 188.172 5.43281 187.699 5.87789C187.235 6.32296 186.676 6.5455 186.023 6.5455Z" fill="black"/>
<path d="M202.674 32.4546C200.704 32.4546 198.976 31.9858 197.489 31.0483C196.012 30.1108 194.857 28.7993 194.023 27.1137C193.2 25.4281 192.788 23.4584 192.788 21.2046C192.788 18.9319 193.2 16.948 194.023 15.2529C194.857 13.5578 196.012 12.2415 197.489 11.304C198.976 10.3665 200.704 9.89778 202.674 9.89778C204.644 9.89778 206.367 10.3665 207.844 11.304C209.331 12.2415 210.487 13.5578 211.31 15.2529C212.144 16.948 212.56 18.9319 212.56 21.2046C212.56 23.4584 212.144 25.4281 211.31 27.1137C210.487 28.7993 209.331 30.1108 207.844 31.0483C206.367 31.9858 204.644 32.4546 202.674 32.4546ZM202.674 29.4432C204.17 29.4432 205.401 29.0597 206.367 28.2927C207.333 27.5256 208.048 26.5171 208.512 25.2671C208.976 24.0171 209.208 22.6629 209.208 21.2046C209.208 19.7463 208.976 18.3874 208.512 17.1279C208.048 15.8684 207.333 14.8504 206.367 14.0739C205.401 13.2974 204.17 12.9091 202.674 12.9091C201.178 12.9091 199.947 13.2974 198.981 14.0739C198.015 14.8504 197.3 15.8684 196.836 17.1279C196.372 18.3874 196.14 19.7463 196.14 21.2046C196.14 22.6629 196.372 24.0171 196.836 25.2671C197.3 26.5171 198.015 27.5256 198.981 28.2927C199.947 29.0597 201.178 29.4432 202.674 29.4432Z" fill="black"/>
<path d="M26.0506 4.16675L50.797 35.3633L53.0001 33.4119L27.5272 1.29947C27.1452 0.818675 26.5912 0.549896 26.0192 0.551644C25.4417 0.557239 24.897 0.84082 24.5247 1.32872L0 33.4345L2.23702 35.342L26.0506 4.16675Z" fill="black"/>
<path d="M25.689 7.01095L7.1084 31.3351L10.7808 53.4486H40.3699L45.7728 31.3351L26.4716 7.00361C26.2528 6.72749 25.9036 6.7311 25.689 7.01095ZM19.655 24.0578C21.3145 23.1424 23.6526 24.4123 24.8768 26.8931C26.1005 29.3725 25.7484 32.1247 24.0892 33.0391C22.4298 33.9547 20.0925 32.6845 18.8682 30.204C17.6429 27.724 17.9966 24.9721 19.655 24.0578ZM13.5783 36.7536C12.3546 34.2738 12.7071 31.5214 14.3645 30.6071C16.0237 29.692 18.3627 30.9616 19.5864 33.4427C20.8098 35.922 20.4577 38.6743 18.8002 39.5886C17.141 40.5031 14.8028 39.2336 13.5783 36.7536ZM38.6346 30.6071C40.2938 31.5216 40.6467 34.2731 39.4217 36.7536C38.1971 39.2335 35.8601 40.5031 34.2009 39.5886C32.5412 38.6741 32.1883 35.922 33.414 33.4427C34.6379 30.9616 36.9754 29.692 38.6346 30.6071ZM28.1248 26.8931C29.3483 24.4133 31.6876 23.1434 33.3456 24.0578C35.0042 24.9721 35.3571 27.7242 34.1327 30.204C32.9092 32.684 30.57 33.9535 28.9108 33.0391C27.2534 32.1246 26.8996 29.3725 28.1248 26.8931ZM32.2685 39.9148C32.2685 40.2332 32.2377 40.5428 32.1844 40.8446C33.8 41.0311 34.4464 43.1079 34.4464 44.8652C34.4464 46.7468 33.0034 48.2738 31.221 48.2738C29.6256 48.2738 28.7103 48.0702 26.7977 47.0149C26.4266 47.1137 23.9854 48.2738 22.3741 48.2738C20.5928 48.2738 19.149 46.7467 19.149 44.8652C19.149 43.0416 19.8931 40.9156 21.5977 40.8245C21.5462 40.5292 21.5148 40.2261 21.5148 39.9148C21.5148 37.1359 24.2618 34.2335 26.8918 34.2335C29.5219 34.2335 32.2685 37.1359 32.2685 39.9148Z" fill="#2563EB"/>
<path d="M65.9506 44.2646C65.9137 43.8922 65.7552 43.6029 65.4751 43.3967C65.1951 43.1905 64.815 43.0874 64.3349 43.0874C64.0086 43.0874 63.7332 43.1336 63.5085 43.2259C63.2839 43.3152 63.1115 43.4398 62.9915 43.5998C62.8745 43.7599 62.8161 43.9415 62.8161 44.1446C62.8099 44.3139 62.8453 44.4616 62.9222 44.5878C63.0022 44.7139 63.1115 44.8232 63.25 44.9155C63.3885 45.0048 63.5485 45.0833 63.7301 45.151C63.9117 45.2156 64.1056 45.271 64.3118 45.3172L65.1612 45.5203C65.5736 45.6126 65.9522 45.7357 66.2969 45.8896C66.6416 46.0435 66.9401 46.2328 67.1925 46.4574C67.4448 46.6821 67.6403 46.9468 67.7788 47.2515C67.9203 47.5562 67.9927 47.9055 67.9957 48.2994C67.9927 48.878 67.8449 49.3797 67.5526 49.8044C67.2633 50.226 66.8447 50.5538 66.2969 50.7877C65.7521 51.0185 65.0951 51.1339 64.3256 51.1339C63.5624 51.1339 62.8976 51.017 62.3313 50.7831C61.7681 50.5492 61.328 50.2029 61.011 49.7444C60.6971 49.2827 60.5324 48.7118 60.517 48.0317H62.4514C62.4729 48.3487 62.5637 48.6133 62.7237 48.8257C62.8868 49.035 63.1038 49.1935 63.3746 49.3012C63.6486 49.4058 63.9579 49.4581 64.3026 49.4581C64.6411 49.4581 64.935 49.4089 65.1843 49.3104C65.4367 49.2119 65.6321 49.075 65.7706 48.8996C65.9091 48.7241 65.9783 48.5225 65.9783 48.2948C65.9783 48.0824 65.9152 47.9039 65.7891 47.7593C65.666 47.6146 65.4844 47.4915 65.2443 47.39C65.0073 47.2884 64.7165 47.1961 64.3718 47.113L63.3423 46.8545C62.5452 46.6606 61.9158 46.3574 61.4542 45.945C60.9925 45.5326 60.7633 44.9771 60.7663 44.2785C60.7633 43.706 60.9156 43.2059 61.2234 42.7781C61.5342 42.3503 61.9605 42.0164 62.5021 41.7763C63.0438 41.5363 63.6593 41.4162 64.3487 41.4162C65.0504 41.4162 65.6629 41.5363 66.1861 41.7763C66.7124 42.0164 67.1217 42.3503 67.4141 42.7781C67.7064 43.2059 67.8572 43.7014 67.8665 44.2646H65.9506Z" fill="#2563EB"/>
<path d="M69.3034 51V43.9091H71.1776V45.1602H71.2607C71.4085 44.7447 71.6547 44.417 71.9994 44.1769C72.3441 43.9368 72.7565 43.8168 73.2366 43.8168C73.7229 43.8168 74.1368 43.9384 74.4784 44.1815C74.82 44.4216 75.0478 44.7478 75.1617 45.1602H75.2355C75.3802 44.754 75.6418 44.4293 76.0203 44.1861C76.402 43.9399 76.8528 43.8168 77.373 43.8168C78.0347 43.8168 78.5717 44.0276 78.9841 44.4493C79.3996 44.8678 79.6073 45.4618 79.6073 46.2312V51H77.6453V46.619C77.6453 46.2251 77.5407 45.9296 77.3314 45.7326C77.1221 45.5357 76.8605 45.4372 76.5466 45.4372C76.1896 45.4372 75.9111 45.5511 75.711 45.7788C75.511 46.0035 75.411 46.3005 75.411 46.6698V51H73.5043V46.5775C73.5043 46.2297 73.4043 45.9527 73.2043 45.7465C73.0073 45.5403 72.7472 45.4372 72.4241 45.4372C72.2056 45.4372 72.0086 45.4926 71.8332 45.6034C71.6608 45.7111 71.5239 45.8634 71.4223 46.0604C71.3208 46.2543 71.27 46.4821 71.27 46.7437V51H69.3034Z" fill="#2563EB"/>
<path d="M83.1828 51.1339C82.7304 51.1339 82.3272 51.0554 81.9733 50.8985C81.6193 50.7384 81.3393 50.503 81.1331 50.1922C80.93 49.8782 80.8284 49.4874 80.8284 49.0196C80.8284 48.6256 80.9007 48.2948 81.0454 48.027C81.19 47.7593 81.387 47.5438 81.6363 47.3807C81.8856 47.2176 82.1687 47.0945 82.4857 47.0114C82.8058 46.9283 83.1412 46.8698 83.4921 46.836C83.9045 46.7929 84.2369 46.7529 84.4893 46.716C84.7416 46.6759 84.9247 46.6175 85.0386 46.5405C85.1525 46.4636 85.2094 46.3497 85.2094 46.1989V46.1712C85.2094 45.8788 85.1171 45.6526 84.9324 45.4926C84.7509 45.3326 84.4923 45.2525 84.1569 45.2525C83.8029 45.2525 83.5213 45.331 83.3121 45.488C83.1028 45.6419 82.9643 45.8357 82.8966 46.0696L81.0777 45.9219C81.17 45.4911 81.3516 45.1187 81.6224 44.8047C81.8933 44.4877 82.2426 44.2446 82.6704 44.0753C83.1012 43.903 83.5998 43.8168 84.1661 43.8168C84.56 43.8168 84.9371 43.863 85.2971 43.9553C85.6603 44.0476 85.9819 44.1907 86.262 44.3846C86.5451 44.5785 86.7683 44.8278 86.9314 45.1325C87.0945 45.4341 87.176 45.7957 87.176 46.2174V51H85.311V50.0167H85.2556C85.1417 50.2383 84.9894 50.4338 84.7986 50.603C84.6077 50.7692 84.3785 50.9 84.1107 50.9954C83.843 51.0878 83.5336 51.1339 83.1828 51.1339ZM83.746 49.7767C84.0353 49.7767 84.2907 49.7197 84.5123 49.6059C84.7339 49.4889 84.9078 49.332 85.034 49.135C85.1602 48.938 85.2233 48.7149 85.2233 48.4656V47.7131C85.1617 47.7531 85.0771 47.7901 84.9694 47.8239C84.8647 47.8547 84.7462 47.8839 84.6139 47.9116C84.4816 47.9362 84.3492 47.9593 84.2169 47.9809C84.0845 47.9993 83.9645 48.0163 83.8568 48.0317C83.626 48.0655 83.4244 48.1194 83.252 48.1932C83.0797 48.2671 82.9458 48.3671 82.8504 48.4933C82.755 48.6164 82.7073 48.7703 82.7073 48.9549C82.7073 49.2227 82.8042 49.4274 82.9981 49.5689C83.1951 49.7074 83.4444 49.7767 83.746 49.7767Z" fill="#2563EB"/>
<path d="M88.7018 51V43.9091H90.6084V45.1464H90.6823C90.8115 44.7063 91.0285 44.3739 91.3332 44.1492C91.6379 43.9215 91.9887 43.8076 92.3857 43.8076C92.4842 43.8076 92.5904 43.8137 92.7043 43.826C92.8182 43.8384 92.9182 43.8553 93.0043 43.8768V45.6219C92.912 45.5942 92.7843 45.5695 92.6212 45.548C92.4581 45.5264 92.3088 45.5157 92.1734 45.5157C91.8841 45.5157 91.6256 45.5788 91.3978 45.7049C91.1732 45.8281 90.9946 46.0004 90.8623 46.222C90.733 46.4436 90.6684 46.699 90.6684 46.9883V51H88.7018Z" fill="#2563EB"/>
<path d="M98.1483 43.9091V45.3864H93.878V43.9091H98.1483ZM94.8475 42.2103H96.8141V48.8211C96.8141 49.0027 96.8418 49.1442 96.8972 49.2458C96.9526 49.3443 97.0295 49.4135 97.128 49.4535C97.2296 49.4935 97.3465 49.5135 97.4789 49.5135C97.5712 49.5135 97.6635 49.5058 97.7559 49.4905C97.8482 49.472 97.919 49.4581 97.9682 49.4489L98.2775 50.9123C98.179 50.9431 98.0405 50.9785 97.862 51.0185C97.6835 51.0616 97.4666 51.0878 97.2111 51.097C96.7372 51.1155 96.3217 51.0524 95.9647 50.9077C95.6107 50.7631 95.3353 50.5384 95.1383 50.2337C94.9413 49.929 94.8444 49.5443 94.8475 49.0796V42.2103Z" fill="#2563EB"/>
<path d="M110.817 44.8555H108.795C108.758 44.5939 108.683 44.3616 108.569 44.1584C108.455 43.9522 108.309 43.7768 108.13 43.6321C107.952 43.4875 107.746 43.3767 107.512 43.2998C107.281 43.2228 107.03 43.1844 106.759 43.1844C106.27 43.1844 105.844 43.3059 105.48 43.5491C105.117 43.7891 104.836 44.14 104.636 44.6016C104.436 45.0602 104.335 45.6172 104.335 46.2728C104.335 46.9468 104.436 47.5131 104.636 47.9716C104.839 48.4302 105.122 48.7764 105.485 49.0103C105.848 49.2442 106.268 49.3612 106.745 49.3612C107.013 49.3612 107.261 49.3258 107.489 49.255C107.719 49.1842 107.924 49.0811 108.103 48.9457C108.281 48.8072 108.429 48.6395 108.546 48.4425C108.666 48.2456 108.749 48.0209 108.795 47.7685L110.817 47.7777C110.765 48.2117 110.634 48.6303 110.425 49.0334C110.218 49.4335 109.94 49.7921 109.589 50.1091C109.241 50.423 108.826 50.6723 108.343 50.8569C107.862 51.0385 107.319 51.1293 106.713 51.1293C105.87 51.1293 105.116 50.9385 104.451 50.5569C103.789 50.1752 103.266 49.6228 102.881 48.8996C102.5 48.1763 102.309 47.3007 102.309 46.2728C102.309 45.2418 102.503 44.3646 102.891 43.6414C103.278 42.9181 103.805 42.3672 104.469 41.9887C105.134 41.6071 105.882 41.4162 106.713 41.4162C107.261 41.4162 107.769 41.4932 108.236 41.6471C108.707 41.8009 109.124 42.0256 109.487 42.3211C109.851 42.6134 110.146 42.972 110.374 43.3967C110.605 43.8214 110.752 44.3077 110.817 44.8555Z" fill="#2563EB"/>
<path d="M114.236 51.1339C113.783 51.1339 113.38 51.0554 113.026 50.8985C112.672 50.7384 112.392 50.503 112.186 50.1922C111.983 49.8782 111.881 49.4874 111.881 49.0196C111.881 48.6256 111.953 48.2948 112.098 48.027C112.243 47.7593 112.44 47.5438 112.689 47.3807C112.938 47.2176 113.221 47.0945 113.538 47.0114C113.859 46.9283 114.194 46.8698 114.545 46.836C114.957 46.7929 115.29 46.7529 115.542 46.716C115.794 46.6759 115.977 46.6175 116.091 46.5405C116.205 46.4636 116.262 46.3497 116.262 46.1989V46.1712C116.262 45.8788 116.17 45.6526 115.985 45.4926C115.804 45.3326 115.545 45.2525 115.21 45.2525C114.856 45.2525 114.574 45.331 114.365 45.488C114.156 45.6419 114.017 45.8357 113.949 46.0696L112.13 45.9219C112.223 45.4911 112.404 45.1187 112.675 44.8047C112.946 44.4877 113.295 44.2446 113.723 44.0753C114.154 43.903 114.653 43.8168 115.219 43.8168C115.613 43.8168 115.99 43.863 116.35 43.9553C116.713 44.0476 117.035 44.1907 117.315 44.3846C117.598 44.5785 117.821 44.8278 117.984 45.1325C118.147 45.4341 118.229 45.7957 118.229 46.2174V51H116.364V50.0167H116.308C116.194 50.2383 116.042 50.4338 115.851 50.603C115.66 50.7692 115.431 50.9 115.163 50.9954C114.896 51.0878 114.586 51.1339 114.236 51.1339ZM114.799 49.7767C115.088 49.7767 115.343 49.7197 115.565 49.6059C115.787 49.4889 115.961 49.332 116.087 49.135C116.213 48.938 116.276 48.7149 116.276 48.4656V47.7131C116.214 47.7531 116.13 47.7901 116.022 47.8239C115.917 47.8547 115.799 47.8839 115.667 47.9116C115.534 47.9362 115.402 47.9593 115.27 47.9809C115.137 47.9993 115.017 48.0163 114.91 48.0317C114.679 48.0655 114.477 48.1194 114.305 48.1932C114.132 48.2671 113.999 48.3671 113.903 48.4933C113.808 48.6164 113.76 48.7703 113.76 48.9549C113.76 49.2227 113.857 49.4274 114.051 49.5689C114.248 49.7074 114.497 49.7767 114.799 49.7767Z" fill="#2563EB"/>
<path d="M119.755 51V43.9091H121.661V45.1464H121.735C121.864 44.7063 122.081 44.3739 122.386 44.1492C122.691 43.9215 123.041 43.8076 123.438 43.8076C123.537 43.8076 123.643 43.8137 123.757 43.826C123.871 43.8384 123.971 43.8553 124.057 43.8768V45.6219C123.965 45.5942 123.837 45.5695 123.674 45.548C123.511 45.5264 123.362 45.5157 123.226 45.5157C122.937 45.5157 122.678 45.5788 122.451 45.7049C122.226 45.8281 122.047 46.0004 121.915 46.222C121.786 46.4436 121.721 46.699 121.721 46.9883V51H119.755Z" fill="#2563EB"/>
<path d="M127.975 51.1385C127.246 51.1385 126.618 50.9908 126.092 50.6954C125.569 50.3968 125.165 49.9752 124.882 49.4304C124.599 48.8826 124.458 48.2348 124.458 47.4869C124.458 46.7575 124.599 46.1174 124.882 45.5665C125.165 45.0156 125.564 44.5862 126.078 44.2785C126.595 43.9707 127.201 43.8168 127.897 43.8168C128.365 43.8168 128.8 43.8922 129.203 44.043C129.61 44.1907 129.963 44.4139 130.265 44.7124C130.57 45.0109 130.807 45.3864 130.976 45.8388C131.145 46.2882 131.23 46.8144 131.23 47.4177V47.9578H125.242V46.739H129.379C129.379 46.4559 129.317 46.2051 129.194 45.9866C129.071 45.768 128.9 45.5972 128.682 45.4741C128.466 45.3479 128.215 45.2849 127.929 45.2849C127.631 45.2849 127.366 45.3541 127.135 45.4926C126.907 45.628 126.729 45.8111 126.6 46.042C126.47 46.2697 126.404 46.5236 126.401 46.8037V47.9624C126.401 48.3133 126.466 48.6164 126.595 48.8719C126.727 49.1273 126.914 49.3243 127.154 49.4628C127.394 49.6013 127.678 49.6705 128.008 49.6705C128.226 49.6705 128.426 49.6397 128.608 49.5782C128.789 49.5166 128.945 49.4243 129.074 49.3012C129.203 49.1781 129.302 49.0273 129.369 48.8488L131.188 48.9688C131.096 49.4058 130.907 49.7875 130.621 50.1137C130.337 50.4368 129.971 50.6892 129.522 50.8708C129.076 51.0493 128.56 51.1385 127.975 51.1385Z" fill="#2563EB"/>
<path d="M133.663 51.1201C133.358 51.1201 133.097 51.0124 132.878 50.7969C132.663 50.5784 132.555 50.3168 132.555 50.0121C132.555 49.7105 132.663 49.452 132.878 49.2366C133.097 49.0211 133.358 48.9134 133.663 48.9134C133.958 48.9134 134.217 49.0211 134.438 49.2366C134.66 49.452 134.771 49.7105 134.771 50.0121C134.771 50.2152 134.718 50.4014 134.614 50.5707C134.512 50.7369 134.378 50.8708 134.212 50.9724C134.046 51.0708 133.863 51.1201 133.663 51.1201Z" fill="#2563EB"/>
<path d="M138.987 51V41.5455H140.986V45.4464H145.044V41.5455H147.038V51H145.044V47.0945H140.986V51H138.987Z" fill="#2563EB"/>
<path d="M150.671 51.1339C150.219 51.1339 149.815 51.0554 149.462 50.8985C149.108 50.7384 148.828 50.503 148.621 50.1922C148.418 49.8782 148.317 49.4874 148.317 49.0196C148.317 48.6256 148.389 48.2948 148.534 48.027C148.678 47.7593 148.875 47.5438 149.125 47.3807C149.374 47.2176 149.657 47.0945 149.974 47.0114C150.294 46.9283 150.63 46.8698 150.98 46.836C151.393 46.7929 151.725 46.7529 151.978 46.716C152.23 46.6759 152.413 46.6175 152.527 46.5405C152.641 46.4636 152.698 46.3497 152.698 46.1989V46.1712C152.698 45.8788 152.605 45.6526 152.421 45.4926C152.239 45.3326 151.981 45.2525 151.645 45.2525C151.291 45.2525 151.01 45.331 150.8 45.488C150.591 45.6419 150.453 45.8357 150.385 46.0696L148.566 45.9219C148.658 45.4911 148.84 45.1187 149.111 44.8047C149.382 44.4877 149.731 44.2446 150.159 44.0753C150.59 43.903 151.088 43.8168 151.654 43.8168C152.048 43.8168 152.425 43.863 152.785 43.9553C153.149 44.0476 153.47 44.1907 153.75 44.3846C154.033 44.5785 154.257 44.8278 154.42 45.1325C154.583 45.4341 154.664 45.7957 154.664 46.2174V51H152.799V50.0167H152.744C152.63 50.2383 152.478 50.4338 152.287 50.603C152.096 50.7692 151.867 50.9 151.599 50.9954C151.331 51.0878 151.022 51.1339 150.671 51.1339ZM151.234 49.7767C151.524 49.7767 151.779 49.7197 152.001 49.6059C152.222 49.4889 152.396 49.332 152.522 49.135C152.648 48.938 152.712 48.7149 152.712 48.4656V47.7131C152.65 47.7531 152.565 47.7901 152.458 47.8239C152.353 47.8547 152.235 47.8839 152.102 47.9116C151.97 47.9362 151.838 47.9593 151.705 47.9809C151.573 47.9993 151.453 48.0163 151.345 48.0317C151.114 48.0655 150.913 48.1194 150.74 48.1932C150.568 48.2671 150.434 48.3671 150.339 48.4933C150.243 48.6164 150.196 48.7703 150.196 48.9549C150.196 49.2227 150.293 49.4274 150.486 49.5689C150.683 49.7074 150.933 49.7767 151.234 49.7767Z" fill="#2563EB"/>
<path d="M156.19 53.6591V43.9091H158.129V45.1002H158.217C158.303 44.9094 158.428 44.7155 158.591 44.5185C158.757 44.3185 158.972 44.1523 159.237 44.0199C159.505 43.8845 159.837 43.8168 160.234 43.8168C160.751 43.8168 161.228 43.9522 161.665 44.2231C162.102 44.4908 162.452 44.8955 162.713 45.4372C162.975 45.9758 163.106 46.6513 163.106 47.4638C163.106 48.2548 162.978 48.9226 162.722 49.4674C162.47 50.009 162.125 50.4199 161.688 50.7C161.254 50.977 160.768 51.1155 160.229 51.1155C159.848 51.1155 159.523 51.0524 159.255 50.9262C158.991 50.8 158.774 50.6415 158.604 50.4507C158.435 50.2568 158.306 50.0614 158.217 49.8644H158.157V53.6591H156.19ZM158.115 47.4546C158.115 47.8762 158.174 48.244 158.291 48.5579C158.408 48.8719 158.577 49.1165 158.798 49.292C159.02 49.4643 159.289 49.5505 159.606 49.5505C159.926 49.5505 160.197 49.4628 160.419 49.2873C160.64 49.1088 160.808 48.8626 160.922 48.5487C161.039 48.2317 161.097 47.867 161.097 47.4546C161.097 47.0453 161.04 46.6852 160.927 46.3743C160.813 46.0635 160.645 45.8204 160.423 45.6449C160.202 45.4695 159.929 45.3818 159.606 45.3818C159.286 45.3818 159.015 45.4664 158.794 45.6357C158.575 45.805 158.408 46.045 158.291 46.3559C158.174 46.6667 158.115 47.033 158.115 47.4546Z" fill="#2563EB"/>
<path d="M164.417 53.6591V43.9091H166.356V45.1002H166.443C166.529 44.9094 166.654 44.7155 166.817 44.5185C166.983 44.3185 167.199 44.1523 167.464 44.0199C167.731 43.8845 168.064 43.8168 168.461 43.8168C168.978 43.8168 169.455 43.9522 169.892 44.2231C170.329 44.4908 170.678 44.8955 170.94 45.4372C171.201 45.9758 171.332 46.6513 171.332 47.4638C171.332 48.2548 171.204 48.9226 170.949 49.4674C170.697 50.009 170.352 50.4199 169.915 50.7C169.481 50.977 168.995 51.1155 168.456 51.1155C168.074 51.1155 167.75 51.0524 167.482 50.9262C167.217 50.8 167 50.6415 166.831 50.4507C166.662 50.2568 166.533 50.0614 166.443 49.8644H166.383V53.6591H164.417ZM166.342 47.4546C166.342 47.8762 166.4 48.244 166.517 48.5579C166.634 48.8719 166.803 49.1165 167.025 49.292C167.247 49.4643 167.516 49.5505 167.833 49.5505C168.153 49.5505 168.424 49.4628 168.645 49.2873C168.867 49.1088 169.035 48.8626 169.149 48.5487C169.265 48.2317 169.324 47.867 169.324 47.4546C169.324 47.0453 169.267 46.6852 169.153 46.3743C169.039 46.0635 168.872 45.8204 168.65 45.6449C168.428 45.4695 168.156 45.3818 167.833 45.3818C167.513 45.3818 167.242 45.4664 167.02 45.6357C166.802 45.805 166.634 46.045 166.517 46.3559C166.4 46.6667 166.342 47.033 166.342 47.4546Z" fill="#2563EB"/>
<path d="M173.629 53.6591C173.38 53.6591 173.146 53.6391 172.927 53.5991C172.712 53.5622 172.533 53.5145 172.392 53.456L172.835 51.988C173.066 52.0588 173.273 52.0972 173.458 52.1034C173.646 52.1095 173.807 52.0665 173.943 51.9741C174.081 51.8818 174.194 51.7248 174.28 51.5032L174.395 51.2032L171.851 43.9091H173.92L175.388 49.1165H175.462L176.943 43.9091H179.025L176.269 51.7664C176.137 52.148 175.957 52.4804 175.729 52.7635C175.505 53.0498 175.22 53.2698 174.875 53.4237C174.531 53.5807 174.115 53.6591 173.629 53.6591Z" fill="#2563EB"/>
<path d="M182.718 43.1936V41.5455H190.482V43.1936H187.588V51H185.612V43.1936H182.718Z" fill="#2563EB"/>
<path d="M192.781 51.1339C192.329 51.1339 191.926 51.0554 191.572 50.8985C191.218 50.7384 190.938 50.503 190.732 50.1922C190.529 49.8782 190.427 49.4874 190.427 49.0196C190.427 48.6256 190.499 48.2948 190.644 48.027C190.789 47.7593 190.986 47.5438 191.235 47.3807C191.484 47.2176 191.767 47.0945 192.084 47.0114C192.404 46.9283 192.74 46.8698 193.091 46.836C193.503 46.7929 193.836 46.7529 194.088 46.716C194.34 46.6759 194.523 46.6175 194.637 46.5405C194.751 46.4636 194.808 46.3497 194.808 46.1989V46.1712C194.808 45.8788 194.716 45.6526 194.531 45.4926C194.349 45.3326 194.091 45.2525 193.756 45.2525C193.402 45.2525 193.12 45.331 192.911 45.488C192.701 45.6419 192.563 45.8357 192.495 46.0696L190.676 45.9219C190.769 45.4911 190.95 45.1187 191.221 44.8047C191.492 44.4877 191.841 44.2446 192.269 44.0753C192.7 43.903 193.198 43.8168 193.765 43.8168C194.159 43.8168 194.536 43.863 194.896 43.9553C195.259 44.0476 195.581 44.1907 195.861 44.3846C196.144 44.5785 196.367 44.8278 196.53 45.1325C196.693 45.4341 196.775 45.7957 196.775 46.2174V51H194.91V50.0167H194.854C194.74 50.2383 194.588 50.4338 194.397 50.603C194.206 50.7692 193.977 50.9 193.709 50.9954C193.442 51.0878 193.132 51.1339 192.781 51.1339ZM193.345 49.7767C193.634 49.7767 193.889 49.7197 194.111 49.6059C194.333 49.4889 194.506 49.332 194.633 49.135C194.759 48.938 194.822 48.7149 194.822 48.4656V47.7131C194.76 47.7531 194.676 47.7901 194.568 47.8239C194.463 47.8547 194.345 47.8839 194.213 47.9116C194.08 47.9362 193.948 47.9593 193.816 47.9809C193.683 47.9993 193.563 48.0163 193.455 48.0317C193.225 48.0655 193.023 48.1194 192.851 48.1932C192.678 48.2671 192.544 48.3671 192.449 48.4933C192.354 48.6164 192.306 48.7703 192.306 48.9549C192.306 49.2227 192.403 49.4274 192.597 49.5689C192.794 49.7074 193.043 49.7767 193.345 49.7767Z" fill="#2563EB"/>
<path d="M198.3 51V43.9091H200.267V51H198.3ZM199.288 42.9951C198.996 42.9951 198.745 42.8981 198.536 42.7042C198.33 42.5073 198.227 42.2718 198.227 41.9979C198.227 41.7271 198.33 41.4947 198.536 41.3008C198.745 41.1039 198.996 41.0054 199.288 41.0054C199.581 41.0054 199.83 41.1039 200.036 41.3008C200.246 41.4947 200.35 41.7271 200.35 41.9979C200.35 42.2718 200.246 42.5073 200.036 42.7042C199.83 42.8981 199.581 42.9951 199.288 42.9951Z" fill="#2563EB"/>
<path d="M203.809 41.5455V51H201.842V41.5455H203.809Z" fill="#2563EB"/>
<path d="M211.284 45.9312L209.484 46.042C209.453 45.8881 209.387 45.7496 209.285 45.6265C209.184 45.5003 209.05 45.4003 208.884 45.3264C208.721 45.2495 208.525 45.211 208.297 45.211C207.993 45.211 207.736 45.2756 207.526 45.4049C207.317 45.5311 207.213 45.7003 207.213 45.9127C207.213 46.082 207.28 46.2251 207.416 46.342C207.551 46.459 207.783 46.5528 208.113 46.6236L209.396 46.8821C210.086 47.0237 210.599 47.2515 210.938 47.5654C211.277 47.8793 211.446 48.2917 211.446 48.8026C211.446 49.2673 211.309 49.6751 211.035 50.026C210.764 50.3768 210.392 50.6507 209.918 50.8477C209.447 51.0416 208.904 51.1385 208.288 51.1385C207.349 51.1385 206.602 50.9431 206.045 50.5522C205.491 50.1583 205.166 49.6228 205.07 48.9457L207.005 48.8442C207.063 49.1304 207.205 49.3489 207.43 49.4997C207.654 49.6474 207.942 49.7213 208.293 49.7213C208.637 49.7213 208.914 49.6551 209.124 49.5228C209.336 49.3874 209.444 49.2135 209.447 49.0011C209.444 48.8226 209.368 48.6764 209.221 48.5625C209.073 48.4456 208.845 48.3563 208.537 48.2948L207.309 48.0501C206.617 47.9116 206.101 47.6716 205.763 47.3299C205.427 46.9883 205.26 46.5528 205.26 46.0235C205.26 45.568 205.383 45.1756 205.629 44.8463C205.878 44.517 206.228 44.2631 206.677 44.0846C207.129 43.9061 207.659 43.8168 208.265 43.8168C209.161 43.8168 209.865 44.0061 210.379 44.3846C210.896 44.7632 211.198 45.2787 211.284 45.9312Z" fill="#2563EB"/>
<path d="M213.834 51.1201C213.529 51.1201 213.267 51.0124 213.049 50.7969C212.833 50.5784 212.726 50.3168 212.726 50.0121C212.726 49.7105 212.833 49.452 213.049 49.2366C213.267 49.0211 213.529 48.9134 213.834 48.9134C214.129 48.9134 214.388 49.0211 214.609 49.2366C214.831 49.452 214.942 49.7105 214.942 50.0121C214.942 50.2152 214.889 50.4014 214.785 50.5707C214.683 50.7369 214.549 50.8708 214.383 50.9724C214.217 51.0708 214.034 51.1201 213.834 51.1201Z" fill="#2563EB"/>
</svg>
