<svg width="800" height="233" viewBox="0 0 800 233" fill="none" xmlns="http://www.w3.org/2000/svg">
<g clip-path="url(#clip0_405_7963)">
<path d="M264.29 187.95C269.48 187.77 310.29 187.77 312.8 188.49C313.7 188.85 313.34 214.62 312.26 215.34C310.83 216.24 224.91 216.59 224.55 215.7C222.76 210.87 222.76 190.1 222.94 189.57C223.3 188.85 266.97 125.31 272.17 118.51L272.35 117.79C268.05 117.79 225.81 117.97 224.73 117.79C224.19 117.61 222.05 90.76 224.01 90.22C226.34 89.5 309.93 89.32 310.83 89.5C311.37 89.86 313.87 114.74 313.34 116.71C313.16 117.25 269.13 181.69 264.29 187.42V187.96V187.95Z" fill="white"/>
<path d="M400.01 190.28C395.71 190.46 368.33 190.28 361.88 190.28C359.73 197.26 354.54 215.16 353.47 216.77C352.57 217.49 322.32 215.34 320.18 213.73C323.58 200.84 358.31 91.6501 359.92 90.5801C361.53 89.5101 396.44 88.4301 400.91 89.3301C401.45 89.5101 438.86 193.69 442.62 213.92C438.86 216.25 410.04 217.5 409.5 217.14C408.07 213.92 402.16 196.91 400.01 190.29V190.28ZM381.04 118.67C378.53 127.62 370.84 154.11 366.72 165.75C372.81 165.57 389.1 165.39 396.43 165.39C391.96 153.04 384.44 127.08 382.11 118.49C381.75 118.49 381.39 118.67 381.04 118.67Z" fill="white"/>
<path d="M529.58 216.59C526.18 212.29 500.4 170.23 483.04 143.38C483.04 169.16 484.11 201.38 483.58 214.8C477.49 216.41 452.61 216.59 452.43 214.8C451.53 204.6 451 103.82 452.43 91.65C453.15 88.43 481.07 88.43 481.97 89.68C483.94 92.72 514.37 139.44 529.41 167.01C529.77 138.19 528.69 101.32 529.41 92.01C535.5 90.4 559.3 90.76 560.38 91.83C561.46 92.9 560.92 202.1 559.13 214.27C558.41 217.49 531.74 218.03 529.59 216.6L529.58 216.59Z" fill="white"/>
<path d="M649.58 190.28C645.28 190.46 617.9 190.28 611.45 190.28C609.3 197.26 604.109 215.16 603.039 216.77C602.149 217.49 571.89 215.34 569.75 213.73C573.15 200.84 607.88 91.6501 609.49 90.5801C611.1 89.5101 646.009 88.4301 650.479 89.3301C651.019 89.5101 688.43 193.69 692.19 213.92C688.43 216.25 659.61 217.5 659.07 217.14C657.64 213.92 651.73 196.91 649.58 190.29V190.28ZM630.609 118.67C628.099 127.62 620.409 154.11 616.289 165.75C622.379 165.57 638.67 165.39 646 165.39C641.52 153.04 634.01 127.08 631.68 118.49C631.32 118.49 630.959 118.67 630.609 118.67Z" fill="white"/>
<path d="M742.25 177.57C745.29 163.07 761.76 102.75 766.06 89.32C766.96 88.6 798.46 89.68 799.18 92.36C795.96 107.4 763.2 214.44 761.59 215.51C759.8 216.58 728.47 217.66 723.82 216.76C723.28 216.58 688.2 112.22 684.62 92.17C685.87 89.13 716.66 87.69 717.56 88.95C718.99 91.99 738.5 163.06 741.19 177.74C741.55 177.74 741.91 177.56 742.26 177.56L742.25 177.57Z" fill="white"/>
<path d="M79.6396 4.2998C87.0996 -1.4302 97.4804 -1.4302 104.94 4.2998L176.47 59.2705C181.58 63.2005 184.58 69.2805 184.58 75.7305V212.14C184.58 223.61 175.28 232.9 163.82 232.9H20.7598C9.28987 232.9 0 223.6 0 212.14V75.7305C0 69.2805 3.00035 63.2005 8.11035 59.2705L79.6396 4.2998ZM53.9502 66.5605C38.2502 55.6505 16.0801 71.0902 15.0801 87.7402V204.9C15.0802 211.77 20.7506 217.33 27.7305 217.33H119.53C124.46 217.33 134.41 213.31 138.74 210.71C168.1 193.13 168.21 150.35 139.23 132.32V132.33C134.5 129.39 124.15 124.85 118.67 125.83C114.83 126.51 113.63 131.9 116.86 134.24C118.491 135.42 125.17 136.09 128.05 137.18C146.09 144.01 155.56 163.95 149.86 182.36C143.89 201.65 121.46 206.77 106.58 206.22H99.4805C98.6505 206.16 97.7003 204.8 97.7803 203.96C97.8703 202.96 98.2399 200.65 99.5498 198.8C101.38 196.21 104.97 197.08 107.23 197.99C108.1 198.34 109.08 197.84 109.28 196.93C114.7 172.06 105.63 143.65 80.0303 138.58C68.0703 136.21 60.4599 137.31 47.4199 133.73C45.8099 133.29 43.6601 128.52 43.1201 126.87C41.0201 120.44 43.9704 122.28 45.6904 118.11C46.6704 115.76 46.4299 113.09 47.1699 110.83C48.6199 106.43 55.6204 103.411 59.6504 101.811C59.5904 98.1305 59.6305 93.0903 62.2305 90.2803C63.281 90.0415 67.1109 95.4101 72.3203 97.8398C72.3731 97.8079 79.1136 93.7211 85.1299 86.3203C87.2799 83.6703 91.37 71.5701 85.71 70.6201C73.0501 71.3801 65.54 72.1304 53.9502 66.5605Z" fill="white"/>
</g>
<defs>
<clipPath id="clip0_405_7963">
<rect width="799.17" height="232.9" fill="white"/>
</clipPath>
</defs>
</svg>
