<?xml version="1.0" encoding="UTF-8"?>
<svg id="Layer_2" data-name="Layer 2" xmlns="http://www.w3.org/2000/svg" viewBox="0 0 799.17 232.9">
  <defs>
    <style>
      .cls-1 {
        fill: #2463eb;
      }

      .cls-2 {
        fill: #fff;
      }
    </style>
  </defs>
  <g id="Layer_1-2" data-name="Layer 1">
    <g>
      <g>
        <path class="cls-1" d="M264.29,187.95c5.19-.18,46-.18,48.51.54.9.36.54,26.13-.54,26.85-1.43.9-87.35,1.25-87.71.36-1.79-4.83-1.79-25.6-1.61-26.13.36-.72,44.03-64.26,49.23-71.06l.18-.72c-4.3,0-46.54.18-47.62,0-.54-.18-2.68-27.03-.72-27.57,2.33-.72,85.92-.9,86.82-.72.54.36,3.04,25.24,2.51,27.21-.18.54-44.21,64.98-49.05,70.71v.54Z"/>
        <path class="cls-1" d="M400.01,190.28c-4.3.18-31.68,0-38.13,0-2.15,6.98-7.34,24.88-8.41,26.49-.9.72-31.15-1.43-33.29-3.04,3.4-12.89,38.13-122.08,39.74-123.15s36.52-2.15,40.99-1.25c.54.18,37.95,104.36,41.71,124.59-3.76,2.33-32.58,3.58-33.12,3.22-1.43-3.22-7.34-20.23-9.49-26.85ZM381.04,118.67c-2.51,8.95-10.2,35.44-14.32,47.08,6.09-.18,22.38-.36,29.71-.36-4.47-12.35-11.99-38.31-14.32-46.9-.36,0-.72.18-1.07.18Z"/>
        <path class="cls-1" d="M529.58,216.59c-3.4-4.3-29.18-46.36-46.54-73.21,0,25.78,1.07,58,.54,71.42-6.09,1.61-30.97,1.79-31.15,0-.9-10.2-1.43-110.98,0-123.15.72-3.22,28.64-3.22,29.54-1.97,1.97,3.04,32.4,49.76,47.44,77.33.36-28.82-.72-65.69,0-75,6.09-1.61,29.89-1.25,30.97-.18s.54,110.27-1.25,122.44c-.72,3.22-27.39,3.76-29.54,2.33Z"/>
        <path class="cls-1" d="M649.58,190.28c-4.3.18-31.68,0-38.13,0-2.15,6.98-7.34,24.88-8.41,26.49-.89.72-31.15-1.43-33.29-3.04,3.4-12.89,38.13-122.08,39.74-123.15,1.61-1.07,36.52-2.15,40.99-1.25.54.18,37.95,104.36,41.71,124.59-3.76,2.33-32.58,3.58-33.12,3.22-1.43-3.22-7.34-20.23-9.49-26.85ZM630.61,118.67c-2.51,8.95-10.2,35.44-14.32,47.08,6.09-.18,22.38-.36,29.71-.36-4.48-12.35-11.99-38.31-14.32-46.9-.36,0-.72.18-1.07.18Z"/>
        <path class="cls-1" d="M742.25,177.57c3.04-14.5,19.51-74.82,23.81-88.25.9-.72,32.4.36,33.12,3.04-3.22,15.04-35.98,122.08-37.59,123.15-1.79,1.07-33.12,2.15-37.77,1.25-.54-.18-35.62-104.54-39.2-124.59,1.25-3.04,32.04-4.48,32.94-3.22,1.43,3.04,20.94,74.11,23.63,88.79.36,0,.72-.18,1.07-.18Z"/>
      </g>
      <g>
        <path class="cls-1" d="M79.64,4.3L8.11,59.27c-5.11,3.93-8.11,10.01-8.11,16.46v136.41c0,11.46,9.29,20.76,20.76,20.76h143.06c11.46,0,20.76-9.29,20.76-20.76V75.73c0-6.45-3-12.53-8.11-16.46L104.94,4.3c-7.46-5.73-17.84-5.73-25.3,0Z"/>
        <path class="cls-2" d="M139.23,132.33c-4.73-2.94-15.08-7.48-20.56-6.5-3.84.68-5.04,6.07-1.81,8.41,1.63,1.18,8.31,1.85,11.19,2.94,18.04,6.83,27.51,26.77,21.81,45.18-5.97,19.29-28.4,24.41-43.28,23.86h-7.1c-.83-.06-1.78-1.42-1.7-2.26.09-1,.46-3.31,1.77-5.16,1.83-2.59,5.42-1.72,7.68-.81.87.35,1.85-.15,2.05-1.06,5.42-24.87-3.65-53.28-29.25-58.35-11.96-2.37-19.57-1.27-32.61-4.85-1.61-.44-3.76-5.21-4.3-6.86-2.1-6.43.85-4.59,2.57-8.76.98-2.35.74-5.02,1.48-7.28,1.45-4.4,8.45-7.42,12.48-9.02-.06-3.68-.02-8.72,2.58-11.53,1.05-.24,4.88,5.13,10.09,7.56,0,0,6.77-4.09,12.81-11.52,2.15-2.65,6.24-14.75.58-15.7-12.66.76-20.17,1.51-31.76-4.06-15.7-10.91-37.87,4.53-38.87,21.18v117.16c0,6.87,5.67,12.43,12.65,12.43h91.8c4.93,0,14.88-4.02,19.21-6.62,29.36-17.58,29.47-60.36.49-78.39Z"/>
      </g>
    </g>
  </g>
</svg>