<svg width="200" height="60" viewBox="0 0 200 60" xmlns="http://www.w3.org/2000/svg" role="img" aria-label="PawsCo">
  <g fill="#9ca3af">
    <circle cx="28" cy="28" r="10"/>
    <circle cx="16" cy="18" r="4"/>
    <circle cx="28" cy="14" r="4"/>
    <circle cx="40" cy="18" r="4"/>
    <path d="M20 36c4-2 12-2 16 0 2 1 4 3 4 6H16c0-3 2-5 4-6z"/>
    <path d="M70 40h-8V20h8c6 0 10 3 10 10s-4 10-10 10zm0-6c3 0 4-2 4-4s-1-4-4-4h-2v8h2z"/>
    <path d="M88 20h6l4 14 4-14h6l-6 20h-8L88 20z"/>
    <path d="M120 20h6v20h-6V20z"/>
    <path d="M132 30c0-6 4-10 10-10 5 0 8 2 9 6l-6 2c-1-2-2-3-3-3-3 0-4 2-4 5s1 5 4 5c1 0 2-1 3-3l6 2c-1 4-4 6-9 6-6 0-10-4-10-10z"/>
    <path d="M168 20h6v14h8v6h-14V20z"/>
  </g>
</svg>

