<svg width="320" height="80" viewBox="0 0 320 80" xmlns="http://www.w3.org/2000/svg" role="img" aria-label="PawsCo">
  <defs>
    <linearGradient id="paws-g" x1="0" y1="0" x2="1" y2="1">
      <stop offset="0%" stop-color="#111827"/>
      <stop offset="100%" stop-color="#4b5563"/>
    </linearGradient>
  </defs>
  <g fill="url(#paws-g)">
    <circle cx="40" cy="40" r="14"/>
    <circle cx="24" cy="26" r="6"/>
    <circle cx="40" cy="20" r="6"/>
    <circle cx="56" cy="26" r="6"/>
    <path d="M26 52c6-3 20-3 28 0 4 2 6 5 6 8H20c0-3 2-6 6-8z"/>
    <path d="M110 56h-12V24h12c9 0 16 5 16 16s-7 16-16 16zm0-10c5 0 8-3 8-6s-3-6-8-6h-4v12h4z"/>
    <path d="M138 24h10l6 22 6-22h10l-10 32h-12L138 24z"/>
    <path d="M186 24h10v32h-10V24z"/>
    <path d="M206 40c0-10 6-16 16-16 8 0 12 4 14 8l-10 4c-2-4-4-6-6-6-5 0-6 4-6 10s1 10 6 10c2 0 4-2 6-6l10 4c-2 6-6 10-14 10-10 0-16-6-16-16z"/>
    <path d="M256 24h10v22h12v10h-22V24z"/>
  </g>
</svg>

