<svg width="320" height="80" viewBox="0 0 320 80" xmlns="http://www.w3.org/2000/svg" role="img" aria-label="CanineCloud">
  <defs>
    <linearGradient id="cc-grad" x1="0" y1="0" x2="1" y2="1">
      <stop offset="0%" stop-color="#60a5fa"/>
      <stop offset="100%" stop-color="#10b981"/>
    </linearGradient>
  </defs>
  <g>
    <!-- Cloud with paw mark -->
    <g transform="translate(16,16)">
      <path d="M18 40h44c8 0 14-6 14-14 0-7-5-13-12-14-2-7-9-12-16-12-6 0-11 3-14 8-1-0-2-0-3-0-9 0-16 7-16 16 0 9 7 16 16 16z" fill="url(#cc-grad)"/>
      <!-- paw pads -->
      <circle cx="34" cy="28" r="4" fill="#e0f2fe"/>
      <circle cx="28" cy="22" r="3" fill="#e0f2fe"/>
      <circle cx="34" cy="20" r="3" fill="#e0f2fe"/>
      <circle cx="40" cy="22" r="3" fill="#e0f2fe"/>
    </g>
    <text x="110" y="52" font-family="Inter, Arial, Helvetica, sans-serif" font-size="26" fill="#0f172a">CanineCloud</text>
  </g>
</svg>

